<svg xmlns="http://www.w3.org/2000/svg" width="55.538" height="75.806" viewBox="0 0 55.538 75.806">
    <g id="Group_684" data-name="Group 684" transform="translate(-302.512 -1873.189)">
        <g id="Group_392" data-name="Group 392" transform="translate(0 -1602.192)">
            <path id="Path_484" data-name="Path 484" d="M358.05,3523.374a27.769,27.769,0,1,1-55.538,0c0-15.348,27.726-47.993,27.726-47.993S358.05,3508.026,358.05,3523.374Z" fill="#648c90"/>
            <path id="Path_485" data-name="Path 485" d="M339.906,3528.736l-4.125,2.063-4.125-2.063v-5.177l4.125-2.063,4.125,2.063Zm-19.25-5.177,4.125-2.063,4.125,2.063v5.177l-4.125,2.063-4.125-2.063Zm5.5-9.625,4.125-2.063,4.125,2.063v5.177l-4.125,2.063-4.125-2.063Zm20.012,7.17a1.375,1.375,0,1,0-1.525-2.288l-3.461,2.305-4.026-2.01v-5.29l3.513-2.341h0a1.375,1.375,0,0,0-1.526-2.288l-3.461,2.305-4.026-2.01v-3.276a1.375,1.375,0,0,0-2.75,0v3.276l-4.026,2.01-3.461-2.305a1.375,1.375,0,1,0-1.525,2.288l3.512,2.342v5.29l-4.025,2.01-3.462-2.305a1.375,1.375,0,1,0-1.525,2.288l3.513,2.342v5.4l-3.513,2.342a1.375,1.375,0,1,0,1.525,2.288l3.462-2.307,4.025,2.012v3.276a1.375,1.375,0,0,0,2.75,0v-3.276l4.125-2.063,4.125,2.063v3.276a1.375,1.375,0,0,0,2.75,0v-3.276l4.026-2.012,3.461,2.307a1.375,1.375,0,0,0,1.526-2.288l-3.513-2.342v-5.4Z" fill="#fff"/>
        </g>
    </g>
</svg>