<svg xmlns="http://www.w3.org/2000/svg" width="54.618" height="74.551" viewBox="0 0 54.618 74.551">
    <g id="Group_685" data-name="Group 685" transform="translate(-672.691 -1873.443)">
        <g id="Group_388" data-name="Group 388" transform="translate(0 -1602.192)">
            <path id="Path_472" data-name="Path 472" d="M727.309,3522.834a27.309,27.309,0,1,1-54.618,0c0-15.095,27.266-47.2,27.266-47.2S727.309,3507.739,727.309,3522.834Z" fill="#ff7ba6"/>
            <g id="Group_387" data-name="Group 387">
            <path id="Path_473" data-name="Path 473" d="M697.243,3529.1a13,13,0,0,0-6.031,3.05l-9.435-11.429a25.572,25.572,0,0,1,36.446,0l-9.435,11.429a16.118,16.118,0,0,0-1.861-1.4,12.891,12.891,0,0,0-2.117-1.056A14.071,14.071,0,0,0,697.243,3529.1ZM700,3511.071a27.681,27.681,0,0,0-20.319,8.919,1.008,1.008,0,0,0-.036,1.329l10.707,12.965a1.009,1.009,0,0,0,1.516.05,11.151,11.151,0,0,1,16.262,0,1.007,1.007,0,0,0,.738.318h.03a1.011,1.011,0,0,0,.748-.368l10.707-12.965a1.008,1.008,0,0,0-.036-1.329A27.679,27.679,0,0,0,700,3511.071Z" fill="#fff"/>
            <path id="Path_474" data-name="Path 474" d="M697.919,3529.535l-4.69-4.74a.228.228,0,0,0-.378.231l1.746,5.388a.228.228,0,0,0,.265.152l2.944-.649A.227.227,0,0,0,697.919,3529.535Z" fill="#fff"/>
            </g>
        </g>
    </g>
</svg>