<svg xmlns="http://www.w3.org/2000/svg" width="54.618" height="74.551" viewBox="0 0 54.618 74.551">
    <g id="Group_685" data-name="Group 685" transform="translate(-1040.132 -1873.443)">
        <g id="Group_386" data-name="Group 386" transform="translate(0 -1602.192)">
            <path id="Path_469" data-name="Path 469" d="M1094.75,3522.834a27.309,27.309,0,1,1-54.618,0c0-15.095,27.267-47.2,27.267-47.2S1094.75,3507.739,1094.75,3522.834Z" fill="#5dc098"/>
            <g id="Group_385" data-name="Group 385">
            <path id="Path_470" data-name="Path 470" d="M1071.4,3503.531a.8.8,0,1,0-1.528.476c.712,2.29.637,3.547-.435,9.04a.8.8,0,0,0,1.455.589c3.214-4.935,10.184-5.622,12.8-1.347,3.466,5.661-.809,17.408-9.2,21.743a13.917,13.917,0,0,1-11.413.711,22.368,22.368,0,0,1-6.841-3.946c-1.438-1.146-2.845-.9-3.514.49a5.349,5.349,0,0,0-.107,3.707.8.8,0,0,0,1.52-.5,3.8,3.8,0,0,1,.03-2.513c.2-.426.409-.462,1.074.068a23.817,23.817,0,0,0,7.312,4.2,15.5,15.5,0,0,0,12.674-.8c9.168-4.738,13.808-17.5,9.825-24-2.8-4.563-9.294-4.647-13.519-.977.588-3.469.517-4.828-.14-6.946Z" fill="#fff"/>
            <path id="Path_471" data-name="Path 471" d="M1064.873,3504.454c.874,1.66,1.09,4.028-.038,6.926-.522,1.338-.351,2.313.5,4.944.686,2.115.86,3.162.555,4.317a4.332,4.332,0,0,1-.921,1.708c-1.267,1.494-3.056,1.953-6.776,2.094l-.627.022c-3.784.132-5.332.384-6.855,1.5-1.6,1.173-2.463,3.753-2.308,7.131a.8.8,0,1,0,1.6-.074c-.132-2.893.561-4.963,1.658-5.767,1.156-.849,2.527-1.071,5.963-1.191l.632-.022c4.151-.158,6.279-.7,7.936-2.66a5.919,5.919,0,0,0,1.248-2.334c.409-1.549.2-2.82-.579-5.218-.728-2.242-.864-3.021-.533-3.87,1.3-3.349,1.044-6.2-.037-8.252a.8.8,0,1,0-1.416.745Z" fill="#fff"/>
            </g>
        </g>
    </g>
</svg>