<svg xmlns="http://www.w3.org/2000/svg" width="55.723" height="76.057" viewBox="0 0 55.723 76.057">
    <g id="Group_685" data-name="Group 685" transform="translate(-302.42 -2061.039)">
        <g id="Group_591" data-name="Group 591" transform="translate(0 -1602.192)">
            <path id="Path_683" data-name="Path 683" d="M358.143,3711.384a27.862,27.862,0,1,1-55.723,0c0-15.4,27.818-48.153,27.818-48.153S358.143,3695.984,358.143,3711.384Z" fill="#f5aa3b"/>
            <path id="Path_684" data-name="Path 684" d="M334.107,3688.343l-3.571,15.644H340a.5.5,0,0,1,.4.793l-13.771,21.141c-.113.226-.454.057-.4-.171l3.4-16.378h-9.068a.5.5,0,0,1-.4-.793l13.6-20.461c.056-.171.394-.058.339.225Z" fill="#fff"/>
        </g>
    </g>
</svg>