<svg xmlns="http://www.w3.org/2000/svg" width="54.618" height="74.551" viewBox="0 0 54.618 74.551">
    <g id="Group_685" data-name="Group 685" transform="translate(-672.691 -2061.443)">
        <g id="Group_391" data-name="Group 391" transform="translate(0 -1602.192)">
            <path id="Path_482" data-name="Path 482" d="M727.309,3710.834a27.309,27.309,0,1,1-54.618,0c0-15.095,27.266-47.2,27.266-47.2S727.309,3695.739,727.309,3710.834Z" fill="#29a5dc"/>
            <path id="Path_483" data-name="Path 483" d="M713.467,3720.434a5.076,5.076,0,0,1-5.05-4.42h10.1a5.138,5.138,0,0,1-5.05,4.42ZM700,3703.108a1.614,1.614,0,1,1,1.614-1.614A1.632,1.632,0,0,1,700,3703.108Zm-13.467,17.326a5.077,5.077,0,0,1-5.05-4.42h10.1a5.138,5.138,0,0,1-5.05,4.42Zm4.839-5.823H681.69l4.839-11.363Zm26.937,0h-9.681l4.839-11.363Zm1.611.279-5.611-13.256,2.806-2.806a.693.693,0,0,0-.981-.98l-2.806,2.734h-10.45a2.991,2.991,0,0,0-5.755,0h-10.45l-2.734-2.734a.693.693,0,1,0-.981.98l2.734,2.806-5.611,13.256a.62.62,0,0,0-.072.351v.071a6.525,6.525,0,0,0,13.049,0v-.071a.62.62,0,0,0-.072-.351l-5.472-12.9h9.47a2.91,2.91,0,0,0,2.315,2.384v20.764a.7.7,0,1,0,1.4,0v-20.764a2.918,2.918,0,0,0,2.244-2.384h9.542l-5.472,12.9a.62.62,0,0,0-.072.351v.071a6.525,6.525,0,0,0,13.049,0v-.071a.519.519,0,0,0-.072-.351Z" fill="#fff"/>
        </g>
    </g>
</svg>