<svg xmlns="http://www.w3.org/2000/svg" width="55.538" height="75.806" viewBox="0 0 55.538 75.806">
    <g id="Group_685" data-name="Group 685" transform="translate(-1039.672 -2060.189)">
        <g id="Group_390" data-name="Group 390" transform="translate(0 -1602.192)">
            <path id="Path_475" data-name="Path 475" d="M1095.21,3710.374a27.769,27.769,0,1,1-55.538,0c0-15.348,27.726-47.993,27.726-47.993S1095.21,3695.026,1095.21,3710.374Z" fill="#c0966d"/>
            <g id="Group_389" data-name="Group 389">
            <path id="Path_476" data-name="Path 476" d="M1067.441,3725.688a16.34,16.34,0,1,1,0-32.68c.259,0,.52.007.783.019a6.551,6.551,0,0,0,4.629,8.157,6.922,6.922,0,0,0,6.842,6.168,6.834,6.834,0,0,0,3.784-1.137,16.34,16.34,0,0,1-16.038,19.472Zm17.195-20.954a.733.733,0,0,0-1.212-.34,5.412,5.412,0,0,1-9.145-3.821.733.733,0,0,0-.609-.707,5.083,5.083,0,0,1-3.757-7.18.73.73,0,0,0-.584-1.038,17.8,17.8,0,1,0,15.307,13.086Z" fill="#fff" stroke="#fff" stroke-miterlimit="10" stroke-width="0.5"/>
            <path id="Path_477" data-name="Path 477" d="M1063.025,3698.666a3.686,3.686,0,1,1-3.685,3.686A3.689,3.689,0,0,1,1063.025,3698.666Zm0,8.833a5.147,5.147,0,1,0-5.148-5.147A5.154,5.154,0,0,0,1063.025,3707.5Z" fill="#fff" stroke="#fff" stroke-miterlimit="10" stroke-width="0.5"/>
            <path id="Path_478" data-name="Path 478" d="M1057.119,3715.961a2.247,2.247,0,1,1,2.247-2.247A2.251,2.251,0,0,1,1057.119,3715.961Zm0-5.955a3.708,3.708,0,1,0,3.71,3.708A3.714,3.714,0,0,0,1057.119,3710.006Z" fill="#fff" stroke="#fff" stroke-miterlimit="10" stroke-width="0.5"/>
            <path id="Path_479" data-name="Path 479" d="M1066,3721.618a2.246,2.246,0,1,1,2.246-2.246A2.249,2.249,0,0,1,1066,3721.618Zm0-5.954a3.709,3.709,0,1,0,3.709,3.709A3.714,3.714,0,0,0,1066,3715.664Z" fill="#fff" stroke="#fff" stroke-miterlimit="10" stroke-width="0.5"/>
            <path id="Path_480" data-name="Path 480" d="M1071.411,3711.048a1.7,1.7,0,1,1,1.7-1.7A1.7,1.7,0,0,1,1071.411,3711.048Zm3.164-1.7a3.162,3.162,0,1,0-3.163,3.163A3.166,3.166,0,0,0,1074.575,3709.347Z" fill="#fff" stroke="#fff" stroke-miterlimit="10" stroke-width="0.5"/>
            <path id="Path_481" data-name="Path 481" d="M1075.356,3719.07a1.409,1.409,0,1,1,1.408-1.408A1.41,1.41,0,0,1,1075.356,3719.07Zm0-4.281a2.871,2.871,0,1,0,2.871,2.871A2.875,2.875,0,0,0,1075.356,3714.789Z" fill="#fff" stroke="#fff" stroke-miterlimit="10" stroke-width="0.5"/>
            </g>
        </g>
    </g>
</svg>