<svg width="65" height="63" viewBox="0 0 65 63" fill="none" xmlns="http://www.w3.org/2000/svg">
<circle cx="30.75" cy="30.0536" r="30.0536" fill="#C1DAD8"/>
<path fill-rule="evenodd" clip-rule="evenodd" d="M22.9318 15.1825C22.1278 15.5133 21.3669 15.9985 20.737 16.5716C20.1067 17.1228 19.5634 17.7841 19.1937 18.4677C19.0201 18.8204 18.8896 19.1513 18.781 19.504C18.6939 19.8567 18.6504 20.1872 18.6504 20.5399V47.5259C18.6504 47.8786 18.6939 48.2095 18.781 48.5622C18.8896 48.9149 19.0201 49.2677 19.1937 49.5985C19.5634 50.304 20.1067 50.943 20.737 51.5165C21.3669 52.0895 22.1277 52.5528 22.9318 52.9056C23.7142 53.2142 24.5616 53.4126 25.4092 53.4126C25.5616 53.4126 25.6918 53.4568 25.8223 53.5228C25.9524 53.6111 26.0395 53.6993 26.1265 53.8314C26.1916 53.9638 26.2351 54.0958 26.2351 54.2505V59.8282L36.3623 53.5446C36.3623 53.5227 36.3839 53.5227 36.3839 53.5227C36.5144 53.4567 36.6445 53.4126 36.797 53.4126H55.9218C56.7693 53.4126 57.6168 53.2141 58.3992 52.9055C59.2032 52.5528 59.9641 52.0895 60.6159 51.5164C61.2462 50.943 61.7676 50.3039 62.1373 49.5984C62.3329 49.2676 62.463 48.9149 62.55 48.5621C62.6586 48.2094 62.7021 47.8786 62.7021 47.5258V20.5398C62.7021 20.1871 62.6586 19.8566 62.55 19.5039C62.463 19.1512 62.3329 18.8203 62.1373 18.4676C61.7676 17.784 61.2463 17.1227 60.6159 16.5715C59.964 15.9985 59.2032 15.5133 58.3992 15.1824C57.6168 14.8738 56.7694 14.6754 55.9218 14.6754H25.4091C24.5616 14.6754 23.7141 14.8738 22.9317 15.1824L22.9318 15.1825ZM59.0296 13.6391C60.0072 14.036 60.9202 14.6094 61.7026 15.2926C62.485 15.9984 63.1369 16.8141 63.5932 17.6738C63.8323 18.1367 64.0279 18.6 64.1584 19.0629C64.2886 19.548 64.354 20.0551 64.354 20.5399V47.5259C64.354 48.0111 64.2886 48.5181 64.1584 49.0032C64.0279 49.4661 63.8323 49.929 63.5932 50.3919C63.1369 51.252 62.485 52.0677 61.7026 52.7731C60.9202 53.4567 60.0072 54.052 59.0296 54.4489C58.0296 54.8454 56.9865 55.0879 55.9219 55.0879H37.0366L25.8448 62.0329C25.8448 62.0551 25.8233 62.0551 25.8233 62.0551C25.6927 62.1211 25.5626 62.1653 25.4101 62.1653C25.258 62.1653 25.1279 62.1211 24.9974 62.0551C24.8668 61.9668 24.7802 61.8786 24.6932 61.7461C24.6281 61.6141 24.5846 61.4817 24.5846 61.3274V55.0438C23.8022 54.9559 23.0414 54.7575 22.3025 54.4489C21.3248 54.052 20.4335 53.4567 19.6514 52.7731C18.869 52.0676 18.2171 51.252 17.7389 50.3919C17.5214 49.929 17.3257 49.4661 17.1956 49.0032C17.0651 48.518 17 48.011 17 47.5259V20.5399C17 20.0551 17.0651 19.5481 17.1956 19.0629C17.3257 18.6 17.5214 18.1367 17.7389 17.6738C18.2171 16.814 18.869 15.9984 19.6514 15.2926C20.4334 14.6094 21.3463 14.036 22.3025 13.6391C23.3025 13.2203 24.3456 13 25.4101 13H55.9229C56.9876 13 58.0307 13.2203 59.0306 13.6391L59.0296 13.6391ZM27.2354 29.8001H33.1466C33.8855 29.8001 34.6244 30.5497 34.6244 31.2993V43.2493C34.6244 43.9989 33.8855 44.7485 33.1466 44.7485H27.2354C26.4969 44.7485 25.758 43.9989 25.758 43.2493V31.2993C25.758 30.5497 26.4969 29.8001 27.2354 29.8001ZM35.9721 31.8942C36.4934 30.9684 37.5369 30.7919 38.319 30.2188C39.9272 28.6313 41.34 27 42.0354 25.0817C42.1875 24.5965 41.8614 23.4505 42.0134 22.7887C42.2961 21.7965 44.8605 20.2313 46.5774 22.5461C46.9902 23.2297 46.7079 26.2504 46.4253 27.3746C46.1646 28.5211 45.7734 29.5133 45.9471 30.7039C46.751 31.1445 50.7502 30.9684 53.1624 31.1008C55.0965 31.3652 55.5312 33.9446 54.0969 35.1793C54.5532 36.2816 54.5532 38.2438 53.3145 38.6406C53.5967 39.4125 53.5752 40.559 53.1405 41.2644C52.8578 41.7714 52.6842 42.1683 51.4455 42.4769C51.7278 43.6453 51.8367 45.4093 50.1633 45.7839C46.9466 45.6956 44.3823 45.6519 41.166 45.5636C39.6666 45.4312 37.9497 43.6015 36.0591 42.962C36.0372 39.28 35.9937 35.5761 35.9721 31.894L35.9721 31.8942Z" fill="black"/>
</svg>
