<svg width="87" height="86" viewBox="0 0 87 86" fill="none" xmlns="http://www.w3.org/2000/svg">
<g clip-path="url(#clip0_1963_2864)">
<path d="M49.3842 14.3975C36.9666 14.3975 26.9151 24.4499 26.9151 36.8676C26.9151 42.6626 29.1622 47.866 32.71 51.8872L28.571 56.0262L27.5066 54.9619C27.0335 54.4887 26.3239 54.4887 25.8511 54.9619L15.9171 64.8959C14.6163 66.1966 14.8527 68.3254 16.3903 69.8629C17.2175 70.6905 18.2818 71.1636 19.2278 71.1636C20.0557 71.1636 20.7653 70.9273 21.3565 70.3357L31.2905 60.4017C31.7637 59.9285 31.7637 59.2189 31.2905 58.7461L30.2261 57.6818L34.3652 53.5427C38.3862 57.0906 43.5896 59.3377 49.3848 59.3377C61.8023 59.3377 71.8549 49.2853 71.8549 36.8676C71.8549 24.4499 61.8025 14.3975 49.3848 14.3975L49.3842 14.3975ZM19.7007 68.6797C19.3459 68.9161 18.6364 68.7981 18.0452 68.2066C17.4536 67.6154 17.3356 66.9058 17.572 66.551L26.6781 57.445L28.8068 59.5737L19.7007 68.6797ZM49.3842 56.9718C38.2672 56.9718 29.28 47.9837 29.28 36.8676C29.28 25.7506 38.268 16.7624 49.3842 16.7624C60.5011 16.7624 69.4884 25.7504 69.4884 36.8666C69.4888 47.9835 60.5007 56.9718 49.3842 56.9718Z" fill="black"/>
<path d="M60.028 35.6846C59.3184 35.6846 58.8452 36.1578 58.8452 36.8674C58.8452 42.0707 54.5878 46.3282 49.3844 46.3282C44.181 46.3282 39.9236 42.0707 39.9236 36.8674C39.9236 31.664 44.181 27.4065 49.3844 27.4065C50.094 27.4065 50.5672 26.9333 50.5672 26.2238C50.5672 25.5142 50.094 25.041 49.3844 25.041C42.8799 25.041 37.5579 30.3628 37.5579 36.8676C37.5579 43.3723 42.8797 48.6941 49.3844 48.6941C55.8892 48.6941 61.211 43.3723 61.211 36.8676C61.211 36.158 60.7378 35.6848 60.0282 35.6848L60.028 35.6846Z" fill="black"/>
<path d="M46.6647 33.6737C46.1915 33.2006 45.482 33.2006 45.0092 33.6737C44.536 34.1469 44.536 34.8565 45.0092 35.3293L49.7398 40.0599C49.9762 40.2963 50.213 40.4147 50.5678 40.4147H50.6862C51.041 40.4147 51.2773 40.1783 51.5141 39.9415L60.975 28.115C61.3297 27.6418 61.3298 26.8142 60.7386 26.4594C60.2654 26.1046 59.4378 26.1046 59.083 26.6958L50.4498 37.458L46.6647 33.6737Z" fill="black"/>
</g>
<defs>
<clipPath id="clip0_1963_2864">
<rect width="70.9572" height="70.9572" fill="white" transform="translate(7.99304 14.3979)"/>
</clipPath>
</defs>
</svg>
