<svg width="86" height="86" viewBox="0 0 86 86" fill="none" xmlns="http://www.w3.org/2000/svg">
<path d="M25.8388 71.2884C25.8388 71.8934 26.3254 72.3821 26.927 72.3821H56.7485C57.35 72.3821 57.8359 71.8934 57.8359 71.2884L61.9618 49.5049H21.7136L25.8388 71.2884Z" stroke="black" stroke-width="1.52072"/>
<path d="M61.1029 46.4402H42.4164C43.4505 16.1141 17.6838 13.564 17.6838 13.564C33.7739 21.7687 39.3019 38.0412 41.1307 46.4402H22.573C21.9722 46.4402 21.4841 46.9304 21.4841 47.5368L21.6297 48.3015H41.5032H42.3198H62.0447L62.1904 47.5368C62.1911 46.9304 61.7037 46.4402 61.1029 46.4402Z" stroke="black" stroke-width="1.52072"/>
<path d="M59.084 20.5043C49.3621 28.7046 45.9124 40.6915 45.9124 40.6915C61.5926 28.3903 67.8678 13.564 67.8678 13.564C40.4246 16.4041 43.7162 43.5294 43.7162 43.5294C49.5187 23.8176 59.084 20.5043 59.084 20.5043Z" stroke="black" stroke-width="1.52072"/>
</svg>
