<svg width="87" height="86" viewBox="0 0 87 86" fill="none" xmlns="http://www.w3.org/2000/svg">
<path d="M21.2215 38.6622C22.8459 40.1548 24.8736 40.9548 26.9928 40.9548C27.2212 40.9548 27.4507 40.9457 27.6803 40.927C30.046 40.7343 32.2001 39.5684 33.745 37.6433C35.2906 35.7188 36.0426 33.2652 35.8629 30.7341C35.6828 28.2038 34.5927 25.8996 32.7929 24.2472C30.9931 22.5939 28.7021 21.7891 26.3335 21.9823C23.9678 22.175 21.8143 23.3409 20.2688 25.266C18.7232 27.1905 17.9712 29.6442 18.1509 32.1745C18.3316 34.7049 19.4217 37.0091 21.2215 38.6622V38.6622ZM34.141 30.8745C34.2856 32.9126 33.68 34.8885 32.4346 36.4393C31.1897 37.99 29.455 38.9291 27.5496 39.0844C25.9331 39.2159 24.364 38.7647 23.0389 37.8153L32.2851 26.2972C33.3637 27.5546 34.018 29.1471 34.141 30.8745V30.8745ZM21.58 26.47C22.8249 24.9193 24.5596 23.9802 26.4649 23.825C26.6499 23.8101 26.8349 23.8024 27.0187 23.8024C28.4371 23.8024 29.8019 24.2542 30.9745 25.0946L21.7288 36.6115C20.6514 35.354 19.997 33.762 19.8742 32.0348C19.7296 29.9968 20.3351 28.0208 21.5801 26.47L21.58 26.47Z" fill="black"/>
<path d="M39.5473 56.0738C42.6401 54.3123 43.8159 50.188 42.1694 46.8805C40.5225 43.5724 36.6662 42.3141 33.5745 44.0759L21.0098 51.2316C17.917 52.9931 16.7407 57.1172 18.3877 60.4249C19.2111 62.079 20.5867 63.2198 22.1428 63.7276C23.6989 64.2354 25.4364 64.1097 26.982 63.2293L39.5473 56.0738ZM34.3865 45.706C35.5125 45.0647 36.777 44.9734 37.9101 45.3431C39.0432 45.7129 40.0453 46.5439 40.6449 47.7483C41.8434 50.1568 40.9869 53.1597 38.7356 54.4424L33.2155 57.5864L28.8664 48.85L34.3865 45.706ZM19.9124 59.5562C18.7133 57.1475 19.5698 54.1446 21.8217 52.862L27.3418 49.7181L31.691 58.4544L26.1708 61.5984C23.9195 62.8812 21.1115 61.9649 19.9124 59.5562Z" fill="black"/>
<path d="M68.8092 29.5975C68.9385 29.0149 68.9971 28.4051 68.9758 27.7783C68.9128 25.9638 68.1937 24.2846 66.9495 23.0491C65.7057 21.8138 64.0866 21.1701 62.3909 21.2376L48.1653 21.8009C44.6632 21.9396 41.9223 25.1003 42.05 28.8443C42.113 30.6587 42.8321 32.3379 44.0763 33.5734C45.3201 34.8087 46.9392 35.4524 48.6349 35.3849L62.8605 34.8216C65.7765 34.7056 68.1658 32.4958 68.8092 29.5973L68.8092 29.5975ZM65.7744 24.403C66.6796 25.3026 67.2039 26.5255 67.2496 27.8461C67.3422 30.5763 65.3458 32.8741 62.7973 32.9747L56.5476 33.2218L56.2056 23.3314L62.4553 23.0844C63.6893 23.0354 64.8687 23.5039 65.7744 24.4029L65.7744 24.403ZM45.2522 32.2186C44.3471 31.319 43.8227 30.0962 43.7771 28.7755C43.7613 28.3191 43.8042 27.8749 43.8983 27.451C44.3668 25.3403 46.1069 23.7312 48.2292 23.6475L54.479 23.4005L54.821 33.2908L48.5712 33.5378C47.3366 33.5867 46.1579 33.1184 45.2523 32.2187L45.2522 32.2186Z" fill="black"/>
<path d="M56.1851 57.3599C57.8096 58.8526 59.8373 59.653 61.9571 59.653C62.1854 59.653 62.415 59.6433 62.6446 59.6253C65.0102 59.4326 67.1644 58.2666 68.7093 56.3416C70.2549 54.4164 71.0069 51.9628 70.8272 49.4325C70.647 46.9022 69.557 44.5987 67.7572 42.9457C65.9574 41.2926 63.6622 40.4921 61.2978 40.6803C58.9321 40.873 56.7779 42.0389 55.2331 43.964C53.6874 45.8885 52.9354 48.3421 53.1156 50.8724C53.2946 53.4027 54.3852 55.7069 56.185 57.3599L56.1851 57.3599ZM61.4286 42.5228C61.6136 42.508 61.7979 42.5002 61.9817 42.5002C63.6893 42.5002 65.3223 43.1454 66.6311 44.3473C68.0809 45.6789 68.9588 47.5337 69.1034 49.5723C69.2263 51.2996 68.8045 52.9791 67.9169 54.3964L57.1498 44.5065C58.3248 43.3535 59.8138 42.6542 61.4285 42.5228L61.4286 42.5228ZM56.0242 45.9084L66.7927 55.7983C65.6171 56.9513 64.1287 57.6506 62.5133 57.7826C60.6062 57.9347 58.76 57.2896 57.3107 55.9575C55.861 54.6259 54.983 52.7705 54.8385 50.7325C54.715 49.0052 55.1367 47.3257 56.0243 45.9084H56.0242Z" fill="black"/>
<path d="M52.3316 61.6459C50.5324 59.9926 48.2397 59.1883 45.8728 59.3805C43.5072 59.5732 41.353 60.7391 39.8075 62.6642C38.2619 64.5894 37.5099 67.0423 37.6901 69.5727C37.8702 72.103 38.9603 74.4072 40.76 76.0596C42.3845 77.5523 44.4122 78.3527 46.5319 78.3527C46.7597 78.3527 46.9893 78.343 47.2189 78.325C49.5845 78.1323 51.7387 76.9664 53.2842 75.0413C54.8296 73.1162 55.5818 70.6625 55.4016 68.1321C55.222 65.6024 54.1314 63.2989 52.3316 61.6459L52.3316 61.6459ZM47.0888 76.4831C45.1841 76.6378 43.3355 75.9907 41.8863 74.658C40.4365 73.3264 39.5586 71.4709 39.4134 69.4329C39.2905 67.7056 39.7123 66.0255 40.5998 64.6088L51.3682 74.4988C50.192 75.6518 48.7031 76.3516 47.0889 76.4831H47.0888ZM52.4931 73.0975L41.7248 63.2075C42.9003 62.0551 44.3892 61.3551 46.0035 61.2238C46.1891 61.209 46.3734 61.2012 46.5572 61.2012C48.2642 61.2012 49.8971 61.8464 51.206 63.0484C52.6557 64.3799 53.5337 66.2354 53.6789 68.2734C53.8024 70.0001 53.3806 71.6802 52.493 73.0975L52.4931 73.0975Z" fill="black"/>
</svg>
