<svg width="68" height="61" viewBox="0 0 68 61" fill="none" xmlns="http://www.w3.org/2000/svg">
<circle cx="30.0536" cy="30.0536" r="30.0536" fill="#C1DAD8"/>
<path d="M56.7398 42.7338C56.4306 42.7338 56.1301 42.5738 55.965 42.2869L53.6976 38.361C53.4511 37.9337 53.5975 37.3867 54.0248 37.1401C54.4509 36.8927 54.9979 37.04 55.2456 37.4673L57.5122 41.3924C57.7587 41.8197 57.6123 42.3667 57.185 42.6133C57.0446 42.6955 56.8906 42.7338 56.7398 42.7338L56.7398 42.7338Z" fill="black"/>
<path d="M54.4716 38.8077H49.9389C49.4457 38.8077 49.0452 38.4071 49.0452 37.914C49.0452 37.4208 49.4457 37.0203 49.9389 37.0203H54.4716C54.9648 37.0203 55.3653 37.4208 55.3653 37.914C55.3653 38.4071 54.9656 38.8077 54.4716 38.8077Z" fill="black"/>
<path d="M45.8122 53.8084C45.503 53.8084 45.2025 53.6484 45.0374 53.3616L39.6752 44.0734C39.4286 43.6453 39.575 43.0991 40.0023 42.8525C40.4304 42.6052 40.9766 42.7524 41.2232 43.1797L46.5854 52.4679C46.832 52.896 46.6855 53.4422 46.2582 53.6887C46.117 53.7701 45.9634 53.8084 45.8122 53.8084H45.8122Z" fill="black"/>
<path d="M56.5357 53.8087H45.8113C45.3182 53.8087 44.9176 53.4081 44.9176 52.915C44.9176 52.4218 45.3182 52.0212 45.8113 52.0212H56.5357C57.0289 52.0212 57.4294 52.4218 57.4294 52.915C57.4294 53.4085 57.0289 53.8087 56.5357 53.8087Z" fill="black"/>
<path d="M58.7705 57.6786C58.4613 57.6786 58.1609 57.5186 57.9957 57.2318L55.7615 53.3621C55.5149 52.934 55.6613 52.3878 56.0886 52.1412C56.5159 51.8947 57.0617 52.0411 57.3095 52.4684L59.5437 56.3381C59.7903 56.7662 59.6439 57.3124 59.2166 57.5589C59.0761 57.6399 58.9217 57.6786 58.7705 57.6786H58.7705Z" fill="black"/>
<path d="M43.5764 57.6787C43.4251 57.6787 43.2715 57.6404 43.1303 57.559C42.7022 57.3124 42.5566 56.7654 42.8031 56.3381L45.0374 52.4684C45.284 52.0403 45.8294 51.8939 46.2582 52.1413C46.6863 52.3878 46.832 52.9348 46.5854 53.3621L44.3512 57.2318C44.1856 57.5187 43.8855 57.6787 43.5763 57.6787H43.5764Z" fill="black"/>
<path d="M66.3663 44.5213H61.8977C61.4046 44.5213 61.004 44.1207 61.004 43.6276C61.004 43.1345 61.4046 42.7339 61.8977 42.7339H66.3663C66.8594 42.7339 67.26 43.1345 67.26 43.6276C67.26 44.1211 66.8594 44.5213 66.3663 44.5213Z" fill="black"/>
<path d="M56.5346 53.8084C56.3834 53.8084 56.2298 53.7701 56.0886 53.6887C55.6605 53.4422 55.5148 52.8952 55.7614 52.4679L61.1236 43.1797C61.3702 42.7524 61.9156 42.6052 62.3445 42.8525C62.7726 43.0991 62.9182 43.6461 62.6716 44.0734L57.3094 53.3616C57.1438 53.6484 56.8438 53.8084 56.5346 53.8084H56.5346Z" fill="black"/>
<path d="M40.4479 44.5214C40.2967 44.5214 40.1431 44.4831 40.0019 44.4017C39.5738 44.1551 39.4282 43.6081 39.6747 43.1809L45.037 33.8935C45.2835 33.4654 45.8289 33.3189 46.2578 33.5663C46.6859 33.8129 46.8315 34.3599 46.585 34.7872L41.2227 44.0745C41.0572 44.3606 40.7571 44.5214 40.4479 44.5214H40.4479Z" fill="black"/>
<path d="M56.5357 35.2327H45.8113C45.3182 35.2327 44.9176 34.8321 44.9176 34.339C44.9176 33.8459 45.3182 33.4453 45.8113 33.4453H56.5357C57.0289 33.4453 57.4294 33.8459 57.4294 34.339C57.4294 34.8321 57.0289 35.2327 56.5357 35.2327Z" fill="black"/>
<path d="M61.899 44.5212C61.5898 44.5212 61.2893 44.3612 61.1242 44.0744L55.762 34.787C55.5154 34.3589 55.6618 33.8127 56.0891 33.5661C56.5164 33.3188 57.0622 33.466 57.31 33.8933L62.6722 43.1807C62.9188 43.6088 62.7723 44.155 62.345 44.4015C62.2046 44.4829 62.0502 44.5212 61.899 44.5212H61.899Z" fill="black"/>
<path d="M40.6533 33.4454C40.3441 33.4454 40.0436 33.2854 39.8785 32.9985L37.6119 29.0734C37.3654 28.6461 37.5118 28.0991 37.9391 27.8525C38.3652 27.6052 38.9122 27.7524 39.1599 28.1797L41.4265 32.1048C41.673 32.5321 41.5266 33.0791 41.0993 33.3257C40.9581 33.4079 40.8041 33.4454 40.6533 33.4454H40.6533Z" fill="black"/>
<path d="M38.3848 29.5203H33.8521C33.3589 29.5203 32.9584 29.1197 32.9584 28.6266C32.9584 28.1335 33.3589 27.7329 33.8521 27.7329H38.3848C38.878 27.7329 39.2786 28.1335 39.2786 28.6266C39.2786 29.1197 38.8788 29.5203 38.3848 29.5203Z" fill="black"/>
<path d="M56.7398 24.158C56.4306 24.158 56.1302 23.998 55.965 23.7111L53.6985 19.7852C53.4519 19.3571 53.5983 18.8109 54.0256 18.5643C54.4517 18.3178 54.9987 18.4642 55.2465 18.8915L57.513 22.8174C57.7596 23.2455 57.6132 23.7917 57.1859 24.0383C57.0446 24.1197 56.8906 24.158 56.7398 24.158H56.7398Z" fill="black"/>
<path d="M54.4716 20.233H49.9389C49.4457 20.233 49.0452 19.8324 49.0452 19.3393C49.0452 18.8461 49.4457 18.4456 49.9389 18.4456H54.4716C54.9648 18.4456 55.3653 18.8461 55.3653 19.3393C55.3653 19.8324 54.9656 20.233 54.4716 20.233Z" fill="black"/>
<path d="M43.7481 31.658C43.4389 31.658 43.1385 31.498 42.9733 31.2111L39.6754 25.4986C39.4288 25.0705 39.5753 24.5243 40.0026 24.2777C40.4299 24.0311 40.9769 24.1776 41.2234 24.6049L44.5213 30.3174C44.7679 30.7455 44.6215 31.2917 44.1942 31.5383C44.0537 31.6205 43.9001 31.658 43.7481 31.658H43.7481Z" fill="black"/>
<path d="M56.5346 35.2328C56.3834 35.2328 56.2298 35.1945 56.0886 35.1131C55.6605 34.8666 55.5148 34.3196 55.7614 33.8923L61.1236 24.6049C61.3702 24.1768 61.9156 24.0304 62.3445 24.2777C62.7726 24.5243 62.9182 25.0713 62.6716 25.4986L57.3094 34.786C57.1438 35.0728 56.8438 35.2328 56.5346 35.2328H56.5346Z" fill="black"/>
<path d="M56.5357 35.2327H45.8113C45.3182 35.2327 44.9176 34.8321 44.9176 34.339C44.9176 33.8459 45.3182 33.4453 45.8113 33.4453H56.5357C57.0289 33.4453 57.4294 33.8459 57.4294 34.339C57.4294 34.8321 57.0289 35.2327 56.5357 35.2327Z" fill="black"/>
<path d="M40.4479 25.9454C40.2967 25.9454 40.1431 25.9071 40.0019 25.8257C39.5738 25.5791 39.4282 25.0321 39.6747 24.6048L45.037 15.3166C45.2835 14.8885 45.8289 14.7409 46.2578 14.9895C46.6859 15.236 46.8315 15.783 46.585 16.2103L41.2227 25.4985C41.0572 25.7854 40.7571 25.9454 40.4479 25.9454H40.4479Z" fill="black"/>
<path d="M56.5357 16.658H45.8113C45.3182 16.658 44.9176 16.2574 44.9176 15.7643C44.9176 15.2712 45.3182 14.8706 45.8113 14.8706H56.5357C57.0289 14.8706 57.4294 15.2712 57.4294 15.7643C57.4294 16.2574 57.0289 16.658 56.5357 16.658Z" fill="black"/>
<path d="M61.899 25.9456C61.5898 25.9456 61.2893 25.7856 61.1242 25.4987L55.762 16.2105C55.5154 15.7824 55.6618 15.2362 56.0891 14.9897C56.5172 14.7423 57.0622 14.8887 57.31 15.3168L62.6722 24.605C62.9188 25.0331 62.7723 25.5793 62.345 25.8259C62.2038 25.9073 62.0502 25.9456 61.899 25.9456H61.899Z" fill="black"/>
<path d="M40.4479 44.5214C40.2967 44.5214 40.1431 44.4831 40.0019 44.4017C39.5738 44.1551 39.4282 43.6081 39.6747 43.1809L45.037 33.8935C45.2835 33.4654 45.8289 33.3189 46.2578 33.5663C46.6859 33.8129 46.8315 34.3599 46.585 34.7872L41.2227 44.0745C41.0572 44.3606 40.7571 44.5214 40.4479 44.5214H40.4479Z" fill="black"/>
<path d="M40.449 44.5213H29.7245C29.2314 44.5213 28.8308 44.1207 28.8308 43.6276C28.8308 43.1345 29.2314 42.7339 29.7245 42.7339H40.449C40.9421 42.7339 41.3427 43.1345 41.3427 43.6276C41.3427 44.1211 40.9421 44.5213 40.449 44.5213Z" fill="black"/>
<path d="M29.7255 44.5212C29.4163 44.5212 29.1159 44.3612 28.9507 44.0744L23.5885 34.787C23.3419 34.3589 23.4883 33.8127 23.9156 33.5661C24.343 33.3188 24.8887 33.466 25.1365 33.8933L30.4987 43.1807C30.7453 43.6088 30.5989 44.155 30.1716 44.4015C30.0311 44.4829 29.8767 44.5212 29.7255 44.5212H29.7255Z" fill="black"/>
<path d="M24.3614 35.2328C24.2102 35.2328 24.0566 35.1945 23.9153 35.1131C23.4872 34.8666 23.3416 34.3196 23.5882 33.8923L28.9504 24.6049C29.197 24.1768 29.7424 24.0304 30.1713 24.2777C30.5994 24.5243 30.745 25.0713 30.4984 25.4986L25.1362 34.786C24.9706 35.0728 24.6706 35.2328 24.3614 35.2328H24.3614Z" fill="black"/>
<path d="M40.449 25.9454H29.7245C29.2314 25.9454 28.8308 25.5448 28.8308 25.0517C28.8308 24.5585 29.2314 24.158 29.7245 24.158H40.449C40.9421 24.158 41.3427 24.5585 41.3427 25.0517C41.3427 25.5448 40.9421 25.9454 40.449 25.9454Z" fill="black"/>
<path d="M42.6836 48.3912C42.3744 48.3912 42.074 48.2312 41.9088 47.9444L39.6746 44.0739C39.428 43.6458 39.5744 43.0996 40.0017 42.853C40.4298 42.6056 40.976 42.7529 41.2226 43.1802L43.4568 47.0507C43.7034 47.4788 43.557 48.025 43.1297 48.2715C42.9884 48.3525 42.8348 48.3912 42.6836 48.3912H42.6836Z" fill="black"/>
<path d="M27.4896 48.3912C27.3384 48.3912 27.1848 48.3529 27.0436 48.2715C26.6163 48.025 26.4699 47.478 26.7164 47.0507L28.9507 43.1802C29.1973 42.7529 29.7427 42.6056 30.1715 42.853C30.5988 43.0996 30.7453 43.6466 30.4987 44.0739L28.2644 47.9444C28.0989 48.2312 27.7988 48.3912 27.4896 48.3912H27.4896Z" fill="black"/>
<path d="M29.7255 25.9456C29.4163 25.9456 29.1159 25.7856 28.9507 25.4987L26.7164 21.6282C26.4699 21.2001 26.6163 20.6539 27.0436 20.4073C27.4717 20.1608 28.0167 20.3072 28.2644 20.7345L30.4987 24.605C30.7453 25.0331 30.5988 25.5793 30.1715 25.8259C30.0303 25.9073 29.8767 25.9456 29.7255 25.9456H29.7255Z" fill="black"/>
<path d="M58.7705 39.1028C58.4613 39.1028 58.1609 38.9428 57.9957 38.656L55.7615 34.7863C55.5149 34.3582 55.6613 33.812 56.0886 33.5654C56.5159 33.318 57.0617 33.4653 57.3095 33.8926L59.5437 37.7623C59.7903 38.1904 59.6439 38.7366 59.2166 38.9831C59.0761 39.0645 58.9217 39.1028 58.7705 39.1028H58.7705Z" fill="black"/>
<path d="M45.8122 16.658C45.503 16.658 45.2026 16.498 45.0374 16.2111L42.8031 12.3414C42.5566 11.9133 42.7022 11.3671 43.1303 11.1206C43.5576 10.8732 44.1046 11.0204 44.3511 11.4477L46.5854 15.3174C46.832 15.7455 46.6855 16.2917 46.2582 16.5383C46.1178 16.6197 45.9634 16.658 45.8122 16.658H45.8122Z" fill="black"/>
<path d="M56.5346 16.658C56.3834 16.658 56.2298 16.6197 56.0886 16.5383C55.6605 16.2918 55.5148 15.7448 55.7614 15.3175L57.9957 11.4478C58.2434 11.0205 58.7868 10.8721 59.2165 11.1206C59.6446 11.3672 59.7902 11.9142 59.5437 12.3415L57.3094 16.2112C57.1438 16.498 56.8438 16.658 56.5346 16.658H56.5346Z" fill="black"/>
<path d="M24.3622 35.2327H19.8937C19.4006 35.2327 19 34.8321 19 34.339C19 33.8459 19.4006 33.4453 19.8937 33.4453H24.3622C24.8554 33.4453 25.2559 33.8459 25.2559 34.339C25.2559 34.8321 24.8554 35.2327 24.3622 35.2327Z" fill="black"/>
<path d="M66.3663 25.9454H61.8977C61.4046 25.9454 61.004 25.5448 61.004 25.0517C61.004 24.5585 61.4046 24.158 61.8977 24.158H66.3663C66.8594 24.158 67.26 24.5585 67.26 25.0517C67.26 25.5448 66.8594 25.9454 66.3663 25.9454Z" fill="black"/>
</svg>
