<svg width="68" height="61" viewBox="0 0 68 61" fill="none" xmlns="http://www.w3.org/2000/svg">
<circle cx="30.0536" cy="30.0536" r="30.0536" fill="#C1DAD8"/>
<path d="M53.0015 59.9649H20.1619C18.4184 59.9649 17 58.5464 17 56.8025V12.1619C17 10.4184 18.418 9 20.1619 9H43.4977C43.7679 9 44.0278 9.10751 44.2189 9.29863L55.8558 20.946C56.0464 21.1376 56.1539 21.3964 56.1539 21.6667V36.9742C56.1539 37.5371 55.6975 37.9935 55.1346 37.9935C54.5717 37.9935 54.1153 37.5371 54.1153 36.9742V22.0884L43.0752 11.0382H20.1624C19.5428 11.0382 19.0391 11.5419 19.0391 12.1616V56.8022C19.0391 57.4323 19.5318 57.926 20.1624 57.926H53.002C53.6157 57.926 54.1154 57.4218 54.1154 56.8022V54.444C54.1154 53.8811 54.5718 53.4247 55.1347 53.4247C55.6976 53.4247 56.154 53.8811 56.154 54.444V56.8022C56.154 58.5462 54.7394 59.9646 53.0015 59.9646L53.0015 59.9649Z" fill="black"/>
<path d="M55.134 22.6808H45.6344C43.8919 22.6808 42.4745 21.2633 42.4745 19.5209V10.0213C42.4745 9.6092 42.7228 9.23743 43.1036 9.07966C43.4848 8.9209 43.9218 9.00849 44.2144 9.30064L55.8545 20.9407C56.1461 21.2324 56.2332 21.6703 56.0755 22.0516C55.9177 22.4323 55.5459 22.6806 55.1338 22.6806L55.134 22.6808ZM44.5127 12.482V19.5209C44.5127 20.139 45.0158 20.6422 45.634 20.6422H52.6729L44.5127 12.482Z" fill="black"/>
<path d="M38.7856 22.0771H25.1171C24.5542 22.0771 24.0978 21.6208 24.0978 21.0579C24.0978 20.495 24.5542 20.0386 25.1171 20.0386H38.7856C39.3485 20.0386 39.8049 20.495 39.8049 21.0579C39.8049 21.6208 39.3485 22.0771 38.7856 22.0771Z" fill="black"/>
<path d="M48.042 28.7881H25.1184C24.5555 28.7881 24.0991 28.3317 24.0991 27.7688C24.0991 27.2059 24.5555 26.7495 25.1184 26.7495H48.042C48.6049 26.7495 49.0613 27.2059 49.0613 27.7688C49.0613 28.3317 48.6049 28.7881 48.042 28.7881Z" fill="black"/>
<path d="M48.042 35.499H25.1184C24.5555 35.499 24.0991 35.0426 24.0991 34.4797C24.0991 33.9168 24.5555 33.4604 25.1184 33.4604H48.042C48.6049 33.4604 49.0613 33.9168 49.0613 34.4797C49.0613 35.0426 48.6049 35.499 48.042 35.499Z" fill="black"/>
<path d="M46.1116 42.206H25.1144C24.5515 42.206 24.0951 41.7497 24.0951 41.1868C24.0951 40.6239 24.5515 40.1675 25.1144 40.1675H46.1116C46.6744 40.1675 47.1308 40.6239 47.1308 41.1868C47.1313 41.7497 46.6749 42.206 46.1121 42.206H46.1116Z" fill="black"/>
<path d="M45.1381 48.9233H25.1144C24.5515 48.9233 24.0951 48.4669 24.0951 47.904C24.0951 47.3411 24.5515 46.8848 25.1144 46.8848H45.1381C45.701 46.8848 46.1574 47.3411 46.1574 47.904C46.1574 48.4669 45.7005 48.9233 45.1381 48.9233Z" fill="black"/>
<path d="M53.7349 55.5777C51.1768 55.5777 48.6331 54.5952 46.7339 52.6961C44.8676 50.8301 43.8408 48.3492 43.8418 45.7109C43.8433 43.0732 44.8715 40.5926 46.7378 38.7268C48.6022 36.8619 51.0817 35.8347 53.719 35.8342H53.721C56.3588 35.8342 58.8383 36.8615 60.7032 38.7268C63.9845 42.0076 64.5315 47.2046 62.0042 51.0851C61.6414 51.6505 61.2024 52.193 60.7032 52.6921C60.202 53.1933 59.658 53.6337 59.0866 54.0006C57.4551 55.0602 55.5907 55.5778 53.7349 55.5778L53.7349 55.5777ZM53.7205 37.8728H53.719C51.6262 37.8733 49.6583 38.6885 48.1787 40.1682C46.6971 41.6494 45.8809 43.6182 45.8798 45.7121C45.8789 47.8054 46.6941 49.7743 48.1748 51.2549C50.7762 53.8564 54.8996 54.2909 57.9799 52.2886C58.4338 51.997 58.8633 51.6491 59.2615 51.2509C59.6576 50.8548 60.004 50.4268 60.2917 49.9783C62.3004 46.8951 61.8655 42.7718 59.2615 40.1683C57.7813 38.6882 55.8139 37.8729 53.7207 37.8729L53.7205 37.8728Z" fill="black"/>
<path d="M64.3092 59.9366C63.379 59.9366 62.4483 59.5828 61.7395 58.874L57.1314 54.2654C56.7332 53.8672 56.7332 53.2222 57.1314 52.8241C57.5295 52.426 58.1745 52.426 58.5726 52.8241L63.1808 57.4328C63.8029 58.0549 64.8152 58.0549 65.4374 57.4328C65.7365 57.1337 65.9082 56.7221 65.9082 56.3045C65.9082 55.876 65.742 55.4744 65.4409 55.1727L60.8327 50.5641C60.4345 50.1659 60.4345 49.5209 60.8327 49.1228C61.2308 48.7247 61.8759 48.7247 62.2739 49.1228L66.8821 53.7315C67.5684 54.4178 67.9467 55.3316 67.9467 56.3045C67.9467 57.2591 67.5575 58.1953 66.8786 58.8741C66.1699 59.5824 65.2398 59.9367 64.309 59.9367L64.3092 59.9366Z" fill="black"/>
</svg>
