<svg width="68" height="61" viewBox="0 0 68 61" fill="none" xmlns="http://www.w3.org/2000/svg">
<circle cx="30.75" cy="30.0536" r="30.0536" fill="#C1DAD8"/>
<path d="M66.0066 17H15.6776C15.2328 17 14.8059 17.1768 14.4913 17.4913C14.1768 17.8059 14 18.2328 14 18.6776V47.1974C14 47.6422 14.1768 48.0691 14.4913 48.3837C14.8059 48.6982 15.2328 48.875 15.6776 48.875H66.0066C66.4515 48.875 66.8784 48.6982 67.1929 48.3837C67.5075 48.0691 67.6842 47.6422 67.6842 47.1974V18.6776C67.6842 18.2328 67.5075 17.8059 67.1929 17.4913C66.8784 17.1768 66.4515 17 66.0066 17ZM34.1115 21.7745L34.6563 20.6709L35.2012 21.7749L36.4193 21.9521L35.5378 22.8111L35.746 24.0243L34.6563 23.4514L33.567 24.0243L33.7752 22.8111L32.8937 21.9521L34.1115 21.7745ZM34.1115 25.9686L34.6563 24.865L35.2012 25.969L36.4193 26.1461L35.5378 27.0052L35.746 28.2184L34.6563 27.6455L33.567 28.2184L33.7752 27.0052L32.8937 26.1461L34.1115 25.9686ZM34.1115 30.1627L34.6563 29.0591L35.2012 30.1631L36.4193 30.3402L35.5378 31.1992L35.746 32.4125L34.6563 31.8396L33.567 32.4125L33.7752 31.1992L32.8937 30.3402L34.1115 30.1627ZM29.0786 21.7745L29.6234 20.6709L30.1683 21.7749L31.3864 21.9521L30.5049 22.8111L30.7131 24.0243L29.6234 23.4514L28.5341 24.0243L28.7423 22.8111L27.8608 21.9521L29.0786 21.7745ZM29.0786 25.9686L29.6234 24.865L30.1683 25.969L31.3864 26.1461L30.5049 27.0052L30.7131 28.2184L29.6234 27.6455L28.5341 28.2184L28.7423 27.0052L27.8608 26.1461L29.0786 25.9686ZM29.0786 30.1627L29.6234 29.0591L30.1683 30.1631L31.3864 30.3402L30.5049 31.1992L30.7131 32.4125L29.6234 31.8396L28.5341 32.4125L28.7423 31.1992L27.8608 30.3402L29.0786 30.1627ZM23.6263 21.7745L24.1711 20.6709L24.716 21.7749L25.9341 21.9521L25.0526 22.8111L25.2608 24.0243L24.1711 23.4514L23.0818 24.0243L23.29 22.8111L22.4085 21.9521L23.6263 21.7745ZM23.6263 25.9686L24.1711 24.865L24.716 25.969L25.9341 26.1461L25.0526 27.0052L25.2608 28.2184L24.1711 27.6455L23.0818 28.2184L23.29 27.0052L22.4085 26.1461L23.6263 25.9686ZM23.6263 30.1627L24.1711 29.0591L24.716 30.1631L25.9341 30.3402L25.0526 31.1992L25.2608 32.4125L24.1711 31.8396L23.0818 32.4125L23.29 31.1992L22.4085 30.3402L23.6263 30.1627ZM18.5934 21.7745L19.1382 20.6709L19.6831 21.7749L20.9012 21.9521L20.0197 22.8111L20.2279 24.0243L19.1382 23.4514L18.0489 24.024L18.2571 22.8107L17.3756 21.9517L18.5934 21.7745ZM18.5934 25.9686L19.1382 24.865L19.6831 25.969L20.9012 26.1461L20.0197 27.0052L20.2279 28.2184L19.1382 27.6455L18.0489 28.2181L18.2571 27.0048L17.3756 26.1458L18.5934 25.9686ZM18.5934 30.1627L19.1382 29.0591L19.6831 30.1631L20.9012 30.3402L20.0197 31.1992L20.2279 32.4125L19.1382 31.8396L18.0489 32.4121L18.2571 31.1989L17.3756 30.3398L18.5934 30.1627ZM66.0071 47.1978H15.6781V44.2463C15.7298 44.2564 15.7826 44.2616 15.8354 44.262H66.0071L66.0071 47.1978ZM66.0071 42.5844H15.8353C15.7825 42.5847 15.7297 42.59 15.6781 42.6001V40.0522C15.7297 40.0623 15.7825 40.0676 15.8353 40.0679H66.0071V42.5844ZM66.0071 38.3903H15.8353C15.7825 38.3907 15.7297 38.3959 15.6781 38.406V35.8738H66.007L66.0071 38.3903ZM66.0071 34.1962H39.3222V31.6798H66.0071V34.1962ZM66.0071 30.0021H39.3222V27.4857H66.0071V30.0021ZM66.0071 25.808H39.3222V23.2916H66.0071V25.808ZM66.0071 21.614H39.3222V18.6781H66.0071V21.614Z" fill="black"/>
</svg>
