<?xml version="1.0" encoding="utf-8"?>
<!-- Generator: Adobe Illustrator 23.0.3, SVG Export Plug-In . SVG Version: 6.00 Build 0)  -->
<svg version="1.1" id="Layer_1" xmlns="http://www.w3.org/2000/svg" xmlns:xlink="http://www.w3.org/1999/xlink" x="0px" y="0px"
	 viewBox="0 0 66.2 60.1" style="enable-background:new 0 0 66.2 60.1;" xml:space="preserve">
<style type="text/css">
	.st0{fill:#C1DAD8;}
</style>
<circle class="st0" cx="30.1" cy="30.1" r="30.1"/>
<path d="M21.2,27.7c-1.4,1.5-2.2,3.4-2.2,5.5c0,2,0.9,4,2.3,5.4l16.4,15.7c2,1.9,4.8,2.6,7.5,1.8c2.6-0.8,4.7-2.9,5.3-5.6
	c0.7-2.7-0.1-5.5-2.1-7.4L32.1,27.5c-1.5-1.4-3.4-2.2-5.5-2.1C24.6,25.4,22.7,26.3,21.2,27.7L21.2,27.7z M23.7,30.1
	c0.3-0.3,0.9-0.4,1.2,0c0.3,0.3,0.3,0.9,0,1.2c-0.5,0.5-0.7,1.1-0.7,1.8c0,0.7,0.3,1.3,0.8,1.8c0.3,0.3,0.3,0.9,0,1.2
	c-0.3,0.3-0.9,0.4-1.2,0c-0.8-0.8-1.3-1.9-1.3-3C22.5,32,22.9,30.9,23.7,30.1L23.7,30.1z M47.3,44.5c1.5,1.5,2.2,3.7,1.6,5.7
	c-0.5,2.1-2.1,3.7-4.2,4.3c-2.1,0.6-4.3,0.1-5.8-1.4l-7.6-7.3l8.3-8.6L47.3,44.5z M62.8,26l-9.5-6.2l-9.5-6.2
	c-2.3-1.3-5.1-1.4-7.4-0.1c-2.3,1.2-3.9,3.6-4.1,6.2c-0.2,2.6,1,5.2,3.1,6.7l9.5,6.2l9.5,6.2c1.5,1,3.3,1.4,5.1,1.2
	c1.8-0.2,3.4-1,4.7-2.3c0.3-0.3,0.7-0.7,0.9-1.1c1.1-1.7,1.5-3.8,1.1-5.8C65.7,28.9,64.5,27.2,62.8,26L62.8,26z M37.2,23.6
	c-0.9-0.6-1.6-1.6-1.8-2.7c-0.2-1.1,0-2.3,0.6-3.2c0.3-0.4,0.8-0.5,1.2-0.3c0.4,0.3,0.5,0.8,0.2,1.2c-0.4,0.6-0.5,1.3-0.4,1.9
	c0.1,0.7,0.5,1.2,1.1,1.6c0.4,0.3,0.5,0.8,0.2,1.2l-0.1,0.1l0,0C38,23.8,37.5,23.8,37.2,23.6L37.2,23.6z M64.4,31.2
	c0.3,1.5,0,3.2-0.9,4.5c-0.9,1.3-2.2,2.2-3.8,2.6c-1.5,0.3-3.2,0-4.5-0.8l-8.8-5.8l6.6-10l8.8,5.8C63.2,28.3,64.1,29.7,64.4,31.2
	L64.4,31.2z"/>
</svg>
