<svg width="86" height="91" viewBox="0 0 86 91" fill="none" xmlns="http://www.w3.org/2000/svg">
<path d="M65.8034 23.4822L59.3612 16.9788C58.0725 15.6902 56.4163 15.0153 54.6368 15.0153L27.7027 14.9541C25.9237 14.9541 24.2054 15.629 22.9784 16.9176C21.6898 18.2063 21.0149 19.8625 21.0149 21.6419V66.4912C21.0149 70.1727 24.0213 73.1786 27.7023 73.1786H61.0785C64.7599 73.1786 67.7659 70.1722 67.7659 66.4912L67.7663 28.2068C67.7663 26.4273 67.0914 24.7094 65.8032 23.4824L65.8034 23.4822ZM64.2695 25.016C64.7604 25.5069 65.0672 26.059 65.3125 26.7339H57.0296C56.4775 26.7339 56.0478 26.3042 56.0478 25.7521V17.4697C56.6615 17.7149 57.2748 18.0217 57.7657 18.5126L64.2695 25.016ZM61.079 71.031H27.7028C25.2489 71.031 23.2242 69.0064 23.2242 66.5523V21.6417C23.2242 20.4147 23.715 19.3101 24.5128 18.4512C25.3105 17.5923 26.4763 17.1626 27.7033 17.1626L53.8398 17.2238V25.7519C53.8398 27.5309 55.3124 28.9424 57.0303 28.9424H65.5584V66.4906C65.558 69.0066 63.5333 71.0313 61.0793 71.0313L61.079 71.031Z" fill="black"/>
<path d="M57.7049 48.5757H42.612C41.9982 48.5757 41.5078 49.0666 41.5078 49.6798C41.5078 50.2935 41.9987 50.784 42.612 50.784H57.7049C58.3186 50.784 58.809 50.2931 58.809 49.6798C58.809 49.1282 58.3181 48.5757 57.7044 48.5757H57.7049Z" fill="black"/>
<path d="M57.7049 37.4092H42.612C41.9982 37.4092 41.5078 37.9001 41.5078 38.5133C41.5078 39.127 41.9987 39.6175 42.612 39.6175H57.7049C58.3186 39.6175 58.809 39.1266 58.809 38.5133C58.809 37.9 58.3181 37.4092 57.7044 37.4092H57.7049Z" fill="black"/>
<path d="M57.7049 59.8032H42.612C41.9982 59.8032 41.5078 60.2941 41.5078 60.9074C41.5078 61.5211 41.9987 62.0115 42.612 62.0115H57.7049C58.3186 62.0115 58.809 61.5206 58.809 60.9074C58.809 60.2941 58.3181 59.8032 57.7044 59.8032H57.7049Z" fill="black"/>
<path d="M37.0287 35.0778L33.2861 38.8203L31.8751 37.3477C31.4454 36.918 30.7093 36.918 30.28 37.3477C29.8503 37.7774 29.8503 38.5135 30.28 38.9428L32.55 41.2128C32.7952 41.458 33.0409 41.5196 33.3477 41.5196C33.6546 41.5196 33.8998 41.3968 34.1454 41.2128L38.6857 36.6725C39.1154 36.2428 39.1154 35.5067 38.6857 35.0774C38.2556 34.6486 37.4579 34.6486 37.0286 35.0779L37.0287 35.0778Z" fill="black"/>
<path d="M37.029 46.3061L33.2864 50.0487L31.8138 48.5761C31.3841 48.1464 30.648 48.1464 30.2187 48.5761C29.7891 49.0057 29.7891 49.7419 30.2187 50.1711L32.4887 52.4411C32.7339 52.6863 32.9796 52.748 33.2864 52.748C33.5933 52.748 33.8385 52.6251 34.0842 52.4411L38.6244 47.9008C39.0541 47.4712 39.0541 46.735 38.6244 46.3058C38.1947 45.8765 37.4582 45.8765 37.029 46.3062L37.029 46.3061Z" fill="black"/>
<path d="M37.029 57.4723L33.2864 61.2148L31.8138 59.7422C31.3841 59.3126 30.648 59.3126 30.2187 59.7422C29.7891 60.1719 29.7891 60.9081 30.2187 61.3373L32.4887 63.6073C32.7339 63.8525 32.9796 63.9141 33.2864 63.9141C33.5933 63.9141 33.8385 63.7913 34.0842 63.6073L38.6244 59.067C39.0541 58.6374 39.0541 57.9012 38.6244 57.472C38.1947 57.0431 37.4582 57.0431 37.029 57.4724L37.029 57.4723Z" fill="black"/>
</svg>
