<svg width="68" height="61" viewBox="0 0 68 61" fill="none" xmlns="http://www.w3.org/2000/svg">
<circle cx="30.75" cy="30.0536" r="30.0536" fill="#C1DAD8"/>
<path d="M63.8643 53.5518V45.531C63.8643 44.9517 63.3945 44.4819 62.8153 44.4819C62.2357 44.4819 61.7659 44.9518 61.7659 45.531V53.5518C61.7659 54.131 62.2357 54.6008 62.8153 54.6008C63.3945 54.6008 63.8643 54.131 63.8643 53.5518Z" fill="black"/>
<path d="M56.1109 53.552V40.936C56.1109 40.3564 55.6414 39.887 55.0618 39.887C54.4826 39.887 54.0128 40.3564 54.0128 40.936V53.552C54.0128 54.1312 54.4826 54.601 55.0618 54.601C55.6414 54.601 56.1109 54.1312 56.1109 53.552Z" fill="black"/>
<path d="M48.3587 53.5518V36.9753C48.3587 36.3961 47.8888 35.9263 47.3092 35.9263C46.73 35.9263 46.2602 36.3961 46.2602 36.9753V53.5518C46.2602 54.131 46.73 54.6008 47.3092 54.6008C47.8888 54.6008 48.3587 54.131 48.3587 53.5518Z" fill="black"/>
<path d="M40.6052 53.5518V40.2539C40.6052 39.6746 40.1353 39.2048 39.5561 39.2048C38.9765 39.2048 38.5071 39.6747 38.5071 40.2539V53.5518C38.5071 54.131 38.9765 54.6008 39.5561 54.6008C40.1354 54.6008 40.6052 54.131 40.6052 53.5518Z" fill="black"/>
<path d="M32.8519 53.5519V32.894C32.8519 32.3144 32.3824 31.845 31.8028 31.845C31.2236 31.845 30.7538 32.3144 30.7538 32.894V53.5519C30.7538 54.1311 31.2236 54.6009 31.8028 54.6009C32.3824 54.6009 32.8519 54.1311 32.8519 53.5519Z" fill="black"/>
<path d="M25.0985 53.5519V25.0359C25.0985 24.4566 24.6287 23.9868 24.0495 23.9868C23.4698 23.9868 23 24.4566 23 25.0359V53.5519C23 54.1312 23.4699 54.601 24.0495 54.601C24.6287 54.601 25.0985 54.1312 25.0985 53.5519Z" fill="black"/>
<path d="M66.2773 21.39C65.6981 21.39 65.2283 21.8598 65.2283 22.4391V30.4547L55.8859 21.0489C55.6905 20.8385 55.4175 20.7171 55.1303 20.7134C54.8525 20.7145 54.5865 20.8257 54.3907 21.0226L50.5246 24.9097L40.9933 15.9185C40.586 15.5222 39.9369 15.5222 39.5296 15.9185L35.0498 20.3933L25.1195 12.2416C24.9047 12.0634 24.6277 11.9781 24.35 12.0048C24.0722 12.0312 23.8165 12.1673 23.6394 12.3828C23.4623 12.5983 23.3781 12.8757 23.4059 13.1534C23.4337 13.4311 23.5709 13.6862 23.7872 13.8626L34.4566 22.6437C34.8741 22.9887 35.4855 22.9591 35.8679 22.5756L40.2955 18.1481L49.8211 27.1499C50.2284 27.5462 50.8775 27.5462 51.2848 27.1499L55.1298 23.2734L63.7327 31.9236H55.7438C55.1642 31.9236 54.6948 32.3931 54.6948 32.9726C54.6948 33.5519 55.1642 34.0217 55.7438 34.0217H66.2774C66.5558 34.0217 66.8226 33.9112 67.0195 33.7143C67.2163 33.5178 67.3268 33.2507 67.3268 32.9726V22.439C67.3268 22.1609 67.2163 21.8938 67.0195 21.6973C66.8226 21.5005 66.5558 21.39 66.2774 21.39L66.2773 21.39Z" fill="black"/>
</svg>
