<svg width="64" height="61" viewBox="0 0 64 61" fill="none" xmlns="http://www.w3.org/2000/svg">
<circle cx="30.0536" cy="30.0536" r="30.0536" fill="#C1DAD8"/>
<path d="M54.2696 25.655V17.13H55.6242C56.1022 17.13 56.4209 16.8113 56.4209 16.3333V12.5089C56.4209 12.031 56.1022 11.7122 55.6242 11.7122H42.0796C41.6017 11.7122 41.2829 12.0309 41.2829 12.5089V16.3333C41.2829 16.8113 41.6017 17.13 42.0796 17.13H43.4343V25.6554C43.2751 25.735 43.1155 25.8146 42.8767 25.8946L40.2474 21.7514L40.2471 5.49775H40.6454C42.1593 5.49775 43.3544 4.30264 43.3544 2.78883C43.3544 1.27502 42.0797 0 40.5659 0H28.8534C27.3395 0 26.1444 1.19511 26.1444 2.70892C26.1444 4.22273 27.3395 5.41784 28.8534 5.41784H29.3313V21.6715L13.4758 46.3718C12.2011 48.3636 13.6353 50.9929 16.0254 50.9929H58.8115C59.0506 50.9929 59.2098 50.9133 59.369 50.7537C67.3369 43.105 64.628 29.6396 54.27 25.6562L54.2696 25.655ZM42.7965 13.3058H54.7476V15.5368H42.7965V13.3058ZM44.3903 26.9302C44.7091 26.8506 44.9479 26.5319 44.9479 26.2131V17.1301H52.6766V26.2131C52.6766 26.5319 52.9157 26.8506 53.2341 26.9302C57.0585 28.2049 60.1657 31.2325 61.5203 35.0573L36.1045 35.0569C37.5384 31.3121 40.4864 28.2845 44.3907 26.9302L44.3903 26.9302ZM27.6586 2.70883C27.6586 2.07132 28.1366 1.59336 28.7741 1.59336H40.5655C41.2031 1.59336 41.681 2.07131 41.681 2.70883C41.681 3.34635 41.2031 3.82431 40.5655 3.82431H28.7741C28.2166 3.90427 27.6586 3.34636 27.6586 2.70883ZM30.7659 22.3891C30.8455 22.2299 30.9251 22.1499 30.9251 21.9907L30.9255 5.49755H38.6542V21.9907C38.6542 22.1499 38.7338 22.3095 38.8134 22.3891L41.5223 26.5322C39.0522 27.8868 36.9012 30.1178 35.467 32.8266H24.0738L30.7659 22.3891ZM16.0259 49.3994C14.9104 49.3994 14.2729 48.2043 14.8308 47.2481L23.0375 34.4998H34.6702C32.6784 39.5992 33.7139 45.3352 37.0603 49.3994H16.0259ZM58.4129 49.3994H39.2116C35.8651 46.0529 34.5106 41.2723 35.626 36.6511H61.9987C62.2378 37.6869 62.397 38.7228 62.397 39.838C62.3974 43.4236 60.9631 46.8495 58.4135 49.3992L58.4129 49.3994Z" fill="black"/>
<path d="M55.7833 37.7656C54.1103 37.7656 52.676 39.1203 52.676 40.8729C52.676 42.5459 54.0307 43.9801 55.7833 43.9801C57.5363 43.9801 58.8905 42.6255 58.8905 40.8729C58.8905 39.1995 57.4564 37.7656 55.7833 37.7656ZM55.7833 42.3867C54.9866 42.3867 54.2695 41.7492 54.2695 40.8729C54.2695 40.0762 54.907 39.3591 55.7833 39.3591C56.6596 39.3591 57.2971 39.9966 57.2971 40.8729C57.2971 41.7492 56.58 42.3867 55.7833 42.3867Z" fill="black"/>
<path d="M43.513 40.7134C41.84 40.7134 40.4058 42.068 40.4058 43.8206C40.4058 45.5736 41.7604 46.9279 43.513 46.9279C45.186 46.9279 46.6203 45.5732 46.6203 43.8206C46.6206 42.0677 45.1864 40.7134 43.513 40.7134ZM43.513 45.3344C42.7163 45.3344 41.9992 44.6969 41.9992 43.8206C41.9992 42.9443 42.6367 42.3068 43.513 42.3068C44.3097 42.3068 45.0268 42.9443 45.0268 43.8206C45.0268 44.6969 44.3097 45.3344 43.513 45.3344Z" fill="black"/>
<path d="M25.4272 39.3594C23.6742 39.3594 22.1604 40.7936 22.1604 42.6262C22.1604 44.4588 23.5946 45.893 25.4272 45.893C27.2598 45.893 28.694 44.4588 28.694 42.6262C28.694 40.7936 27.1802 39.3594 25.4272 39.3594ZM25.4272 44.2196C24.5509 44.2196 23.7542 43.5025 23.7542 42.5466C23.7542 41.5903 24.4713 40.8737 25.4272 40.8737C26.3035 40.8737 27.1002 41.5908 27.1002 42.5466C27.1005 43.5026 26.3038 44.2196 25.4272 44.2196Z" fill="black"/>
<path d="M32.5178 30.5143C34.1908 30.5143 35.6251 29.1597 35.6251 27.4071C35.6251 25.6541 34.2704 24.2998 32.5178 24.2998C30.7649 24.2998 29.4106 25.6545 29.4106 27.4071C29.4106 29.16 30.8448 30.5143 32.5178 30.5143ZM32.5178 25.9729C33.3146 25.9729 34.0317 26.6104 34.0317 27.4867C34.0317 28.363 33.3941 29.0005 32.5178 29.0005C31.6415 29.0005 31.004 28.363 31.004 27.4867C31.004 26.6104 31.7211 25.9729 32.5178 25.9729Z" fill="black"/>
</svg>
