<svg width="87" height="87" viewBox="0 0 87 87" fill="none" xmlns="http://www.w3.org/2000/svg">
<path d="M72.724 67.9635C72.5449 66.9669 70.8362 58.1453 67.0682 55.4139C64.6834 53.7652 61.9892 52.6056 59.1442 52.0034V52.0034C57.3162 49.1096 53.2945 47.9137 51.7202 47.5742C51.4753 46.8712 51.2857 46.1505 51.1531 45.4186C52.0913 44.9142 52.8163 44.0947 53.1975 43.108C53.7795 41.447 54.6898 37.4755 54.9808 36.2648C55.665 35.4979 56.1567 34.5822 56.416 33.5919C56.6753 32.6017 56.6948 31.5649 56.4731 30.5658C57.1222 29.4142 58.3533 26.3507 56.5924 21.604C55.4061 18.3928 53.8392 16.4365 51.9365 15.846C51.0587 15.5574 50.107 15.5783 49.243 15.905C44.99 13.8307 36.6705 12.214 32.4325 19.7732C28.5675 26.6533 30.3508 30.1451 31.4476 31.4369C31.2981 32.4116 31.3798 33.4074 31.6863 34.3455C31.9057 35.1087 32.3284 35.7996 32.91 36.346C33.2085 37.6157 34.1113 41.3584 34.7231 43.108C35.1043 44.0947 35.8294 44.9142 36.7675 45.4186C36.6365 46.1325 36.4519 46.8357 36.2154 47.5225C34.6584 47.8076 33.2587 48.6416 32.2758 49.87C31.9097 50.3681 31.6275 50.9215 31.4401 51.5088C28.6869 52.0108 24.3443 52.8892 20.8375 55.4656C17.0695 58.2339 15.3608 67.0555 15.1818 68.0151C15.1549 68.1582 15.157 68.3051 15.188 68.4474C15.2189 68.5897 15.2781 68.7244 15.3621 68.8439C15.4461 68.9634 15.5532 69.0652 15.6772 69.1434C15.8012 69.2216 15.9397 69.2747 16.0846 69.2996C16.1515 69.3069 16.2191 69.3069 16.286 69.2996C16.5483 69.2984 16.8018 69.206 17.0022 69.0387C17.2027 68.8714 17.3374 68.6398 17.3829 68.3842C17.838 65.9186 19.5765 59.0902 22.1731 57.1856C25.0009 55.1039 28.4779 54.2328 31.1267 53.7603C31.1328 54.515 31.2179 55.2671 31.3804 56.0045C32.4549 60.6847 33.2458 63.9107 33.6188 65.3797C32.8708 65.7872 32.2937 66.4447 31.9908 67.2345C31.6879 68.0244 31.6789 68.8952 31.9655 69.691C32.2521 70.4868 32.8156 71.1558 33.5551 71.5782C34.2946 72.0006 35.1619 72.149 36.0018 71.9966C36.8417 71.8443 37.5994 71.4012 38.1394 70.7467C38.6793 70.0922 38.9663 69.269 38.9489 68.4243C38.9315 67.5797 38.6109 66.7687 38.0445 66.1365C37.4781 65.5043 36.7027 65.0921 35.8573 64.9737C35.5066 63.5637 34.7157 60.3082 33.6188 55.5099C33.4406 54.7855 33.3628 54.0404 33.3875 53.2953L33.8725 53.1919C34.857 52.9371 35.7394 52.3911 36.4019 51.6269L42.953 58.2191V67.2991C42.953 67.5928 43.0709 67.8744 43.2808 68.0821C43.4907 68.2897 43.7754 68.4064 44.0722 68.4064C44.3691 68.4064 44.6537 68.2897 44.8636 68.0821C45.0735 67.8744 45.1914 67.5928 45.1914 67.2991V58.2191L51.7873 51.8631C52.4123 52.4999 53.2021 52.9544 54.0705 53.1771C54.5033 53.2805 55.0703 53.3838 55.7195 53.502C56.3686 53.6201 56.9357 53.7308 57.6146 53.8711C57.917 54.7797 57.917 55.7603 57.6146 56.6689L57.5027 57.1635C56.7812 57.0138 56.0362 57.0125 55.3141 57.1596C54.592 57.3067 53.9082 57.5991 53.3051 58.0186C52.702 58.4381 52.1925 58.9757 51.8081 59.5982C51.4238 60.2206 51.1729 60.9146 51.071 61.637L50.0712 69.5875C50.0387 69.8811 50.1245 70.1755 50.31 70.4069C50.4003 70.5215 50.5128 70.617 50.6409 70.688C50.7691 70.759 50.9102 70.804 51.0561 70.8203L52.7274 70.9901C52.8761 71.0075 53.0267 70.9947 53.1702 70.9527C53.3137 70.9107 53.4471 70.8402 53.5622 70.7457C53.6774 70.6511 53.7719 70.5343 53.84 70.4025C53.9081 70.2707 53.9485 70.1265 53.9586 69.9788L54.078 68.5024C54.1029 68.2139 54.0119 67.9274 53.8248 67.7049C53.6376 67.4824 53.3693 67.3419 53.0781 67.3138L52.5931 67.2695L53.2423 61.9692C53.3026 61.5376 53.4549 61.1236 53.6889 60.7546C53.923 60.3855 54.2337 60.0698 54.6003 59.8284C54.965 59.5853 55.3772 59.4203 55.8102 59.3441C56.2432 59.2678 56.6876 59.2819 57.1147 59.3855L58.9129 59.821C59.3404 59.9238 59.7412 60.1142 60.0896 60.38C60.4379 60.6458 60.7259 60.981 60.935 61.3639C61.1456 61.7403 61.2737 62.1563 61.311 62.585C61.3482 63.0136 61.2939 63.4452 61.1513 63.8516L59.2412 68.8788L58.7935 68.7017C58.5257 68.6022 58.2296 68.608 57.9659 68.7178C57.7023 68.8277 57.4911 69.0332 57.3759 69.2922L56.7939 70.6653C56.735 70.8018 56.7046 70.9487 56.7046 71.0972C56.7046 71.2456 56.735 71.3925 56.7939 71.529C56.8507 71.665 56.935 71.7882 57.0414 71.891C57.1479 71.9938 57.2744 72.074 57.4132 72.127L58.9801 72.7397L59.1218 72.784C59.211 72.7949 59.3013 72.7949 59.3905 72.784C59.6211 72.7823 59.8457 72.7106 60.0338 72.5785C60.222 72.4465 60.3646 72.2606 60.4425 72.0458L63.2704 64.5972C63.5111 63.9089 63.6067 63.179 63.5512 62.4526C63.4957 61.7263 63.2903 61.0189 62.9477 60.3742C62.6051 59.7294 62.1325 59.161 61.5592 58.704C60.9859 58.247 60.3239 57.9112 59.6143 57.7171L59.7188 57.2594C59.9985 56.3771 60.1049 55.45 60.0321 54.5281C62.0781 55.0683 64.009 55.9685 65.7326 57.1856C68.3292 59.0902 70.0677 65.9186 70.5228 68.3842C70.5699 68.6384 70.7052 68.8683 70.9056 69.0342C71.1059 69.2 71.3585 69.2913 71.6197 69.2922C71.6866 69.2995 71.7542 69.2995 71.8211 69.2922C71.9707 69.2678 72.1136 69.2133 72.241 69.1322C72.3685 69.0511 72.4779 68.9451 72.5625 68.8207C72.647 68.6962 72.705 68.556 72.7327 68.4086C72.7605 68.2612 72.7575 68.1097 72.724 67.9635V67.9635ZM36.6929 68.5097C36.6929 68.7755 36.6133 69.0352 36.4641 69.2562C36.3149 69.4771 36.1028 69.6493 35.8546 69.751C35.6065 69.8527 35.3335 69.8793 35.07 69.8275C34.8066 69.7756 34.5646 69.6477 34.3747 69.4598C34.1848 69.2719 34.0555 69.0325 34.0031 68.7719C33.9507 68.5112 33.9776 68.2411 34.0804 67.9956C34.1831 67.7501 34.3572 67.5403 34.5805 67.3926C34.8038 67.245 35.0664 67.1662 35.335 67.1662C35.6945 67.1681 36.0388 67.3103 36.293 67.5619C36.5473 67.8134 36.691 68.154 36.6929 68.5097V68.5097ZM34.3724 20.7624C38.812 12.8636 48.2805 17.8096 48.6759 18.0237C48.8563 18.1208 49.06 18.1674 49.2652 18.1583C49.4703 18.1492 49.6691 18.0847 49.8399 17.972C50.0512 17.8603 50.2834 17.7929 50.5222 17.7738C50.7609 17.7548 51.0011 17.7846 51.2277 17.8613C52.4066 18.2378 53.5631 19.8101 54.4809 22.2905C55.0255 23.6798 55.2794 25.1641 55.227 26.6533C54.1587 24.9294 52.6337 23.5278 50.8173 22.6006C50.695 22.5246 50.5583 22.4742 50.4156 22.4524C50.2729 22.4306 50.1272 22.438 49.9875 22.4739C49.8477 22.5099 49.7169 22.5737 49.603 22.6615C49.489 22.7493 49.3945 22.8592 49.3251 22.9844C49.3251 22.9844 47.6761 25.1252 39.2373 25.7896C36.0736 26.0406 33.8352 26.9191 32.5817 28.4103L32.4623 28.5653C32.0893 27.1627 32.1564 24.7045 34.3724 20.7624ZM34.9917 35.3347C34.9461 35.1778 34.8691 35.0317 34.7653 34.9049C34.6615 34.778 34.5329 34.6732 34.3874 34.5965C34.0836 34.3027 33.8779 33.924 33.7979 33.5113C33.5742 32.8979 33.5378 32.233 33.6935 31.5993V31.5624C33.7863 31.3902 33.8301 31.1963 33.8203 31.0014C33.8203 30.898 33.8203 28.4915 39.4163 28.0485C46.3181 27.5023 49.2728 26.0037 50.504 25.0071C52.6528 26.3728 54.0854 28.4546 54.1302 30.3813C54.1374 30.4945 54.16 30.6062 54.1973 30.7135C54.6226 31.7544 54.1973 33.9616 53.2572 34.7072C53.0718 34.872 52.946 35.0924 52.8991 35.3347C52.8991 35.3863 51.7425 40.5021 51.1009 42.2886C50.3995 44.2965 45.6317 44.6951 43.9976 44.6656C41.9831 44.7099 37.5435 44.1562 36.8944 42.2886C36.2452 40.4209 34.9917 35.3863 34.9917 35.3347ZM44.0946 56.2186L37.6405 49.7666C38.1972 48.641 38.6083 47.4505 38.8642 46.2232C40.4732 46.6623 42.1345 46.8858 43.8036 46.8876H44.117C45.7861 46.8858 47.4474 46.6623 49.0564 46.2232C49.2339 47.0934 49.4835 47.9477 49.8026 48.7774C49.8192 48.8303 49.8391 48.8821 49.8623 48.9325C50.0331 49.3321 50.2274 49.7216 50.4443 50.0988L44.0946 56.2186ZM53.3467 50.3129C53.9493 50.5523 54.533 50.8361 55.0927 51.1618L54.6077 51.0585C54.1196 50.9304 53.6776 50.6696 53.3318 50.3055L53.3467 50.3129Z" fill="black"/>
</svg>
