<svg width="64" height="61" viewBox="0 0 64 61" fill="none" xmlns="http://www.w3.org/2000/svg">
<circle cx="30.0536" cy="30.0536" r="30.0536" fill="#C1DAD8"/>
<path d="M63.155 50.7988C63.0021 49.9317 61.5429 42.2564 58.3252 39.88C56.2887 38.4455 53.9879 37.4366 51.5584 36.9126C49.9973 34.3949 46.5629 33.3544 45.2185 33.0589C45.0093 32.4473 44.8475 31.8203 44.7342 31.1835C45.5354 30.7446 46.1546 30.0316 46.4801 29.1731C46.9771 27.728 47.7544 24.2725 48.0029 23.2191C48.5872 22.5519 49.0071 21.7551 49.2286 20.8936C49.45 20.032 49.4667 19.13 49.2773 18.2607C49.8316 17.2587 50.883 14.5933 49.3792 10.4634C48.3661 7.66946 47.0281 5.96741 45.4033 5.45358C44.6536 5.20255 43.8409 5.22071 43.1031 5.50496C39.4711 3.70015 32.3666 2.29355 28.7475 8.87053C25.4469 14.8566 26.9697 17.8946 27.9064 19.0186C27.7787 19.8667 27.8485 20.733 28.1103 21.5492C28.2977 22.2133 28.6586 22.8144 29.1553 23.2898C29.4101 24.3945 30.1811 27.6509 30.7036 29.1731C31.0291 30.0316 31.6483 30.7446 32.4495 31.1835C32.3375 31.8046 32.1799 32.4164 31.978 33.014C30.6483 33.262 29.453 33.9877 28.6137 35.0564C28.301 35.4898 28.06 35.9713 27.9 36.4823C25.5488 36.919 21.8405 37.6834 18.8457 39.9249C15.628 42.3335 14.1689 50.0088 14.016 50.8437C13.993 50.9682 13.9948 51.0961 14.0213 51.2198C14.0477 51.3436 14.0982 51.4609 14.1699 51.5648C14.2417 51.6688 14.3331 51.7573 14.439 51.8254C14.5449 51.8935 14.6632 51.9397 14.7869 51.9613C14.8441 51.9676 14.9018 51.9676 14.959 51.9613C15.1829 51.9602 15.3994 51.8799 15.5706 51.7343C15.7418 51.5888 15.8568 51.3872 15.8956 51.1649C16.2843 49.0197 17.7689 43.0785 19.9863 41.4214C22.4012 39.6102 25.3704 38.8523 27.6324 38.4413C27.6376 39.0979 27.7102 39.7522 27.8491 40.3938C28.7666 44.4659 29.442 47.2727 29.7606 48.5508C29.1218 48.9053 28.6289 49.4773 28.3703 50.1646C28.1116 50.8518 28.1039 51.6094 28.3487 52.3019C28.5934 52.9943 29.0746 53.5763 29.7061 53.9438C30.3376 54.3114 31.0783 54.4404 31.7955 54.3079C32.5128 54.1753 33.1599 53.7898 33.621 53.2204C34.0821 52.6509 34.3271 51.9347 34.3123 51.1998C34.2974 50.4649 34.0237 49.7593 33.5399 49.2092C33.0562 48.6592 32.3941 48.3006 31.6721 48.1975C31.3726 46.9708 30.6972 44.1383 29.7606 39.9635C29.6084 39.3332 29.5419 38.685 29.5631 38.0366L29.9772 37.9467C30.8179 37.725 31.5715 37.25 32.1373 36.5851L37.7317 42.3206V50.2207C37.7317 50.4762 37.8324 50.7213 38.0116 50.902C38.1908 51.0827 38.4339 51.1842 38.6874 51.1842C38.9409 51.1842 39.184 51.0827 39.3633 50.902C39.5425 50.7213 39.6432 50.4762 39.6432 50.2207V42.3206L45.2758 36.7906C45.8095 37.3446 46.484 37.7401 47.2256 37.9338C47.5951 38.0238 48.0794 38.1137 48.6337 38.2165C49.1881 38.3192 49.6723 38.4156 50.2522 38.5376C50.5104 39.3281 50.5104 40.1813 50.2522 40.9719L50.1566 41.4022C49.5404 41.272 48.9043 41.2708 48.2876 41.3988C47.671 41.5268 47.087 41.7812 46.572 42.1462C46.0569 42.5111 45.6218 42.9789 45.2936 43.5205C44.9654 44.0621 44.7512 44.6659 44.6641 45.2944L43.8103 52.2118C43.7826 52.4672 43.8558 52.7234 44.0142 52.9247C44.0914 53.0244 44.1875 53.1075 44.2969 53.1693C44.4063 53.231 44.5268 53.2702 44.6514 53.2844L46.0787 53.4322C46.2056 53.4472 46.3342 53.4362 46.4568 53.3996C46.5793 53.363 46.6932 53.3018 46.7915 53.2195C46.8899 53.1372 46.9706 53.0356 47.0288 52.9209C47.0869 52.8062 47.1214 52.6808 47.13 52.5522L47.232 51.2677C47.2533 51.0167 47.1756 50.7674 47.0157 50.5739C46.8559 50.3803 46.6268 50.258 46.3781 50.2336L45.964 50.195L46.5183 45.5835C46.5698 45.2079 46.6999 44.8477 46.8998 44.5266C47.0997 44.2055 47.3649 43.9309 47.678 43.7208C47.9895 43.5093 48.3414 43.3658 48.7112 43.2994C49.081 43.233 49.4605 43.2453 49.8253 43.3355L51.3609 43.7144C51.7259 43.8038 52.0682 43.9695 52.3657 44.2007C52.6631 44.432 52.9091 44.7236 53.0876 45.0568C53.2675 45.3843 53.3769 45.7463 53.4087 46.1192C53.4405 46.4921 53.3941 46.8676 53.2724 47.2213L51.6412 51.5952L51.2589 51.4411C51.0302 51.3545 50.7773 51.3596 50.5522 51.4551C50.327 51.5507 50.1467 51.7295 50.0483 51.9549L49.5513 53.1495C49.501 53.2683 49.475 53.3961 49.475 53.5253C49.475 53.6544 49.501 53.7822 49.5513 53.901C49.5998 54.0194 49.6717 54.1265 49.7627 54.2159C49.8536 54.3054 49.9616 54.3752 50.0801 54.4213L51.4182 54.9544L51.5393 54.9929C51.6154 55.0024 51.6925 55.0024 51.7687 54.9929C51.9656 54.9914 52.1574 54.929 52.3181 54.8142C52.4787 54.6993 52.6006 54.5375 52.6671 54.3506L55.082 47.87C55.2876 47.271 55.3692 46.636 55.3218 46.004C55.2744 45.3721 55.099 44.7566 54.8064 44.1957C54.5138 43.6347 54.1103 43.1402 53.6207 42.7425C53.1311 42.3449 52.5658 42.0527 51.9598 41.8839L52.049 41.4857C52.2879 40.718 52.3788 39.9113 52.3166 39.1092C54.0638 39.5793 55.7128 40.3625 57.1847 41.4214C59.402 43.0785 60.8867 49.0197 61.2753 51.1649C61.3155 51.386 61.4311 51.5861 61.6022 51.7304C61.7732 51.8746 61.9889 51.9541 62.212 51.9549C62.2692 51.9612 62.3268 51.9612 62.384 51.9549C62.5117 51.9336 62.6338 51.8862 62.7426 51.8157C62.8515 51.7451 62.9449 51.6529 63.0171 51.5446C63.0893 51.4363 63.1388 51.3143 63.1625 51.1861C63.1862 51.0578 63.1837 50.926 63.155 50.7988ZM32.3857 51.2741C32.3857 51.5053 32.3177 51.7313 32.1903 51.9235C32.0629 52.1157 31.8818 52.2656 31.6699 52.3541C31.458 52.4425 31.2248 52.4657 30.9998 52.4206C30.7749 52.3755 30.5683 52.2641 30.4061 52.1007C30.2439 51.9372 30.1335 51.7289 30.0887 51.5021C30.044 51.2754 30.0669 51.0403 30.1547 50.8267C30.2425 50.6131 30.3911 50.4306 30.5818 50.3021C30.7725 50.1737 30.9967 50.1051 31.2261 50.1051C31.5331 50.1068 31.8271 50.2305 32.0442 50.4494C32.2614 50.6682 32.3841 50.9646 32.3857 51.2741ZM30.4041 9.73119C34.1953 2.85875 42.2811 7.16205 42.6188 7.34832C42.7728 7.43284 42.9468 7.47334 43.122 7.46541C43.2972 7.45749 43.4669 7.40145 43.6128 7.30335C43.7932 7.20621 43.9915 7.14752 44.1954 7.13095C44.3993 7.11437 44.6044 7.14027 44.7979 7.20701C45.8047 7.53458 46.7923 8.90264 47.576 11.0607C48.0412 12.2695 48.2579 13.5609 48.2132 14.8566C47.3009 13.3567 45.9986 12.1372 44.4475 11.3305C44.3431 11.2644 44.2263 11.2205 44.1045 11.2016C43.9826 11.1826 43.8582 11.189 43.7388 11.2203C43.6195 11.2515 43.5077 11.3071 43.4105 11.3835C43.3132 11.4598 43.2324 11.5555 43.1731 11.6645C43.1731 11.6645 41.765 13.5271 34.5585 14.1051C31.8569 14.3235 29.9454 15.0878 28.8749 16.3852L28.773 16.5201C28.4544 15.2998 28.5117 13.161 30.4041 9.73119ZM30.933 22.4099C30.894 22.2734 30.8283 22.1462 30.7396 22.0359C30.651 21.9256 30.5412 21.8343 30.4169 21.7676C30.1574 21.512 29.9818 21.1825 29.9135 20.8234C29.7224 20.2898 29.6914 19.7112 29.8243 19.1599V19.1278C29.9036 18.978 29.941 18.8093 29.9326 18.6397C29.9326 18.5497 29.9326 16.4559 34.7114 16.0705C40.6053 15.5952 43.1285 14.2914 44.1799 13.4243C46.015 14.6125 47.2383 16.4238 47.2766 18.1001C47.2827 18.1986 47.302 18.2959 47.3339 18.3892C47.6971 19.2948 47.3339 21.2152 46.5311 21.8639C46.3727 22.0074 46.2653 22.1991 46.2252 22.4099C46.2252 22.4548 45.2376 26.9058 44.6896 28.4602C44.0907 30.2072 40.0191 30.554 38.6237 30.5283C36.9033 30.5669 33.1121 30.0851 32.5578 28.4602C32.0034 26.8352 30.933 22.4548 30.933 22.4099ZM38.7065 40.5801L33.195 34.9665C33.6703 33.9872 34.0214 32.9514 34.2399 31.8835C35.614 32.2656 37.0327 32.46 38.458 32.4616H38.7257C40.151 32.46 41.5697 32.2656 42.9438 31.8835C43.0953 32.6407 43.3084 33.3839 43.5809 34.1058C43.5951 34.1518 43.6122 34.1969 43.6319 34.2407C43.7778 34.5885 43.9438 34.9273 44.1289 35.2555L38.7065 40.5801ZM46.6075 35.4418C47.1221 35.6501 47.6205 35.897 48.0985 36.1804L47.6844 36.0905C47.2676 35.9791 46.8901 35.7521 46.5948 35.4354L46.6075 35.4418Z" fill="black"/>
</svg>
