<svg width="87" height="86" viewBox="0 0 87 86" fill="none" xmlns="http://www.w3.org/2000/svg">
<path d="M34.8401 49.4841L34.6255 49.2015L34.6255 49.2009L34.6256 49.2002L34.6321 48.8522L34.6222 49.197L34.3564 48.847L34.6321 48.8522C34.7856 48.8566 34.9171 48.9518 34.9617 49.096C35.0069 49.2407 34.9573 49.3942 34.8401 49.4841ZM34.8401 49.4841L34.6255 49.204L34.617 49.6534L34.8401 49.4841ZM34.0073 48.8405L33.4086 48.8292L33.2123 48.2648L32.9619 48.9846L32.8998 49.1631L32.6743 49.8113M34.0073 48.8405L31.4887 50.2248L31.0122 49.863L31.7742 49.8487L31.9592 49.8452L32.6521 49.8322M34.0073 48.8405L33.3997 49.3017L33.2499 49.4154L32.7009 49.8323M34.0073 48.8405L34.0368 50.7972M32.6743 49.8113L32.4489 49.1631L32.3868 48.9846L32.1364 48.2648L31.94 48.8292L31.3457 48.8404L31.9489 49.2983L32.1032 49.4154L32.6521 49.8322M32.6743 49.8113L32.6672 49.8319L32.6521 49.8322M32.6743 49.8113L32.6815 49.8319L32.7009 49.8323M32.6521 49.8322L32.6672 49.8436L32.6627 49.8586L32.6776 49.8482L32.693 49.8589M32.7009 49.8323L32.6879 49.8421L32.693 49.8589M32.7009 49.8323L33.3895 49.8452L33.579 49.8488L34.3408 49.8631L33.8644 50.2248L34.0368 50.7972M32.693 49.8589L33.2581 50.2535L33.412 50.361L34.0368 50.7972M32.693 49.8589L32.8914 50.5177L32.9463 50.7002L33.1655 51.4283L32.6764 51.0867L34.0368 50.7972M33.2184 51.4652L33.4485 51.6259L33.4568 51.6317L33.6795 51.7872C33.8011 51.873 33.9688 51.873 34.0905 51.7827L33.2184 51.4652ZM33.2184 51.4652C33.2287 51.2823 33.314 51.0965 33.4852 50.9667C33.4885 50.9641 33.4919 50.9616 33.4954 50.9591C33.4992 50.9564 33.503 50.9537 33.5069 50.9511C33.6729 50.8377 33.8728 50.8086 34.055 50.8579L34.1374 51.1314L34.1388 51.1361L34.2166 51.3947L33.2184 51.4652ZM30.7166 48.8522L30.7278 49.1946L30.728 49.2009L30.728 49.201L30.7284 49.2139L30.7429 49.6586L30.9617 49.8247C31.1319 49.7596 31.2797 49.6235 31.3503 49.4313C31.3523 49.426 31.3542 49.4206 31.3561 49.4152C31.3578 49.4096 31.3595 49.4041 31.3612 49.3985C31.4191 49.2015 31.3817 48.9995 31.2802 48.8416L30.9967 48.8469L30.9855 48.8472L30.7166 48.8522ZM30.7166 48.8522C30.5679 48.8571 30.4365 48.9513 30.3914 49.096C30.3409 49.2403 30.3914 49.3938 30.513 49.4841L30.7316 49.65L30.7233 49.2121L30.7232 49.2072L30.7231 49.2009L30.7231 49.1995L30.7166 48.8522ZM34.6088 49.6596L34.3911 49.8249C34.2141 49.7569 34.058 49.6106 33.9917 49.3986C33.9915 49.398 33.9913 49.3974 33.9911 49.3968C33.9329 49.2082 33.9637 49.0044 34.0698 48.8416L34.352 48.8469L34.6221 49.1995L34.622 49.2013L34.622 49.202L34.6088 49.6596ZM32.2617 47.9045L32.3423 47.673C32.3918 47.5283 32.5277 47.4341 32.6768 47.4341C32.8259 47.4341 32.9617 47.5292 33.0064 47.673L33.0963 47.9313L33.0979 47.9359L33.1915 48.2051C33.0669 48.3587 32.8779 48.4503 32.6768 48.4503C32.4813 48.4503 32.2873 48.362 32.1579 48.203L32.2508 47.9359L32.2617 47.9045Z" fill="black" stroke="black" stroke-width="2.03238"/>
<path d="M37.2742 54.3898L37.2979 54.3904L37.2745 54.4081L37.2773 54.4173L37.2704 54.4125L37.2505 54.4263L37.2559 54.4086L37.2319 54.3903L37.2568 54.3898L37.2655 54.3648L37.2742 54.3898Z" fill="black" stroke="black" stroke-width="2.03238"/>
<path d="M43.5586 56.0555L43.5636 56.0718L43.5488 56.0615L43.5245 56.0784L43.5314 56.0555L43.5185 56.0456L43.5378 56.0453L43.545 56.0246L43.5522 56.0453L43.5715 56.0456L43.5586 56.0555Z" fill="black" stroke="black" stroke-width="2.03238"/>
<path d="M50.3059 54.4151L50.29 54.4262L50.2951 54.4094L50.2713 54.3914L50.2961 54.3908L50.3024 54.3727L50.3087 54.3908L50.3377 54.3915L50.316 54.408L50.3214 54.426L50.3059 54.4151Z" fill="black" stroke="black" stroke-width="2.03238"/>
<path d="M54.4137 49.8473L54.4001 49.8568L54.4041 49.8436L54.389 49.8322L54.404 49.8319L54.4136 49.8043L54.4233 49.8319L54.4383 49.8322L54.4232 49.8437L54.4272 49.8567L54.4137 49.8473Z" fill="black" stroke="black" stroke-width="2.03238"/>
<path d="M56.0539 43.5453L56.0292 43.5625L56.0363 43.5388L56.0147 43.5223L56.0437 43.5217L56.05 43.5036L56.0563 43.5217L56.0847 43.5223L56.0631 43.5387L56.0682 43.5553L56.0539 43.5453Z" fill="black" stroke="black" stroke-width="2.03238"/>
<path d="M54.4137 37.2345L54.3991 37.2446L54.4035 37.2304L54.389 37.2194L54.404 37.2191L54.4136 37.1915L54.4233 37.2191L54.4383 37.2194L54.4238 37.2304L54.4281 37.2446L54.4137 37.2345Z" fill="black" stroke="black" stroke-width="2.03238"/>
<path d="M49.8262 32.6694L49.8105 32.6803L49.8152 32.6649L49.8001 32.6535L49.8151 32.6532L49.8223 32.6325L49.8295 32.6532L49.8488 32.6536L49.8359 32.6634L49.8408 32.6796L49.8262 32.6694Z" fill="black" stroke="black" stroke-width="2.03238"/>
<path d="M43.531 30.9901L43.5091 30.9735L43.5387 30.9729L43.545 30.9548L43.5513 30.9729L43.5804 30.9735L43.5586 30.99L43.5637 31.0069L43.5483 30.9961L43.5242 31.0129L43.531 30.9901Z" fill="black" stroke="black" stroke-width="2.03238"/>
<path d="M37.2751 32.6522L37.29 32.6525L37.2749 32.664L37.2777 32.6731L37.2711 32.6685L37.2501 32.6831L37.2559 32.664L37.2408 32.6525L37.2559 32.6522L37.2655 32.6246L37.2751 32.6522Z" fill="black" stroke="black" stroke-width="2.03238"/>
<path d="M32.6776 37.2354L32.6617 37.2464L32.6666 37.2304L32.6521 37.2194L32.6672 37.2191L32.6743 37.1985L32.6815 37.2191L32.7009 37.2195L32.6886 37.2288L32.694 37.2468L32.6776 37.2354Z" fill="black" stroke="black" stroke-width="2.03238"/>
<path d="M31.0434 43.5456L31.0209 43.5613L31.0276 43.5391L31.0055 43.5223L31.0346 43.5217L31.0409 43.5036L31.0472 43.5217L31.0719 43.5222L31.048 43.5404L31.0512 43.551L31.0434 43.5456Z" fill="black" stroke="black" stroke-width="2.03238"/>
<path d="M15.3522 23.0004H71.7377C71.8328 23.0004 71.9231 23.0367 71.9863 23.1044C72.054 23.1677 72.0903 23.258 72.0903 23.3531V63.2946C72.0903 63.3849 72.054 63.48 71.9863 63.5433C71.9231 63.611 71.8328 63.6472 71.7377 63.6472L15.3522 63.6477C15.2571 63.6477 15.1668 63.6114 15.0991 63.5437C15.0363 63.4795 15 63.3849 15 63.2941V23.3527C15 23.2575 15.0363 23.1673 15.0996 23.104C15.1668 23.0363 15.2575 23 15.3522 23L15.3522 23.0004ZM15.7049 62.9419H71.3858V23.705H15.7049V62.9419Z" fill="black" stroke="black" stroke-width="1.01619"/>
</svg>
