<svg width="86" height="86" viewBox="0 0 86 86" fill="none" xmlns="http://www.w3.org/2000/svg">
<path d="M71.8033 25.7095H15.8859C15.3916 25.7095 14.9173 25.9059 14.5678 26.2553C14.2184 26.6048 14.022 27.0791 14.022 27.5734V59.2599C14.022 59.7542 14.2184 60.2285 14.5678 60.5779C14.9173 60.9274 15.3916 61.1238 15.8859 61.1238H71.8033C72.2975 61.1238 72.7718 60.9274 73.1213 60.5779C73.4708 60.2285 73.6672 59.7542 73.6672 59.2599V27.5734C73.6672 27.0791 73.4708 26.6048 73.1213 26.2553C72.7718 25.9059 72.2975 25.7095 71.8033 25.7095ZM36.3666 31.0142L36.9719 29.788L37.5773 31.0146L38.9307 31.2114L37.9513 32.1658L38.1826 33.5138L36.9719 32.8772L35.7617 33.5138L35.993 32.1658L35.0136 31.2114L36.3666 31.0142ZM36.3666 35.6739L36.9719 34.4478L37.5773 35.6744L38.9307 35.8712L37.9513 36.8256L38.1826 38.1736L36.9719 37.537L35.7617 38.1736L35.993 36.8256L35.0136 35.8712L36.3666 35.6739ZM36.3666 40.3337L36.9719 39.1076L37.5773 40.3342L38.9307 40.5309L37.9513 41.4854L38.1826 42.8333L36.9719 42.1968L35.7617 42.8333L35.993 41.4854L35.0136 40.5309L36.3666 40.3337ZM30.7748 31.0142L31.3802 29.788L31.9855 31.0146L33.3389 31.2114L32.3596 32.1658L32.5909 33.5138L31.3802 32.8772L30.1699 33.5138L30.4013 32.1658L29.4219 31.2114L30.7748 31.0142ZM30.7748 35.6739L31.3802 34.4478L31.9855 35.6744L33.3389 35.8712L32.3596 36.8256L32.5909 38.1736L31.3802 37.537L30.1699 38.1736L30.4013 36.8256L29.4219 35.8712L30.7748 35.6739ZM30.7748 40.3337L31.3802 39.1076L31.9855 40.3342L33.3389 40.5309L32.3596 41.4854L32.5909 42.8333L31.3802 42.1968L30.1699 42.8333L30.4013 41.4854L29.4219 40.5309L30.7748 40.3337ZM24.7171 31.0142L25.3225 29.788L25.9278 31.0146L27.2812 31.2114L26.3018 32.1658L26.5332 33.5138L25.3225 32.8772L24.1122 33.5138L24.3435 32.1658L23.3642 31.2114L24.7171 31.0142ZM24.7171 35.6739L25.3225 34.4478L25.9278 35.6744L27.2812 35.8712L26.3018 36.8256L26.5332 38.1736L25.3225 37.537L24.1122 38.1736L24.3435 36.8256L23.3642 35.8712L24.7171 35.6739ZM24.7171 40.3337L25.3225 39.1076L25.9278 40.3342L27.2812 40.5309L26.3018 41.4854L26.5332 42.8333L25.3225 42.1968L24.1122 42.8333L24.3435 41.4854L23.3642 40.5309L24.7171 40.3337ZM19.1254 31.0142L19.7307 29.788L20.3361 31.0146L21.6895 31.2114L20.7101 32.1658L20.9414 33.5138L19.7307 32.8772L18.5205 33.5134L18.7518 32.1654L17.7724 31.211L19.1254 31.0142ZM19.1254 35.6739L19.7307 34.4478L20.3361 35.6744L21.6895 35.8712L20.7101 36.8256L20.9414 38.1736L19.7307 37.537L18.5205 38.1732L18.7518 36.8252L17.7724 35.8708L19.1254 35.6739ZM19.1254 40.3337L19.7307 39.1076L20.3361 40.3342L21.6895 40.5309L20.7101 41.4854L20.9414 42.8333L19.7307 42.1968L18.5205 42.8329L18.7518 41.485L17.7724 40.5305L19.1254 40.3337ZM71.8038 59.2604H15.8864V55.9811C15.9438 55.9923 16.0025 55.9982 16.0612 55.9986H71.8039L71.8038 59.2604ZM71.8038 54.1347H16.0611C16.0024 54.1351 15.9438 54.1409 15.8864 54.1521V51.3213C15.9438 51.3326 16.0024 51.3384 16.0611 51.3388H71.8038V54.1347ZM71.8038 49.4749H16.0611C16.0024 49.4753 15.9438 49.4811 15.8864 49.4924V46.679H71.8037L71.8038 49.4749ZM71.8038 44.8151H42.1559V42.0192H71.8038V44.8151ZM71.8038 40.1553H42.1559V37.3595H71.8038V40.1553ZM71.8038 35.4955H42.1559V32.6997H71.8038V35.4955ZM71.8038 30.8358H42.1559V27.5739H71.8038V30.8358Z" fill="black"/>
</svg>
