<svg width="634" height="89" viewBox="0 0 634 89" fill="none" xmlns="http://www.w3.org/2000/svg">
<path d="M532.817 6.61539C536.175 4.62177 540.172 5.3361 543.072 6.23961C558.602 11.0776 575.04 10.0786 590.985 12.0502C600.121 13.1799 608.768 15.5759 617.666 17.2801C624.818 18.6496 628.151 22.5627 627.957 29.1069C627.499 44.6436 624.926 59.9633 621.48 75.2086C620.578 79.1982 619.303 80.3048 614.563 78.6543C605.742 75.5823 596.699 73.7059 587.221 78.3559C583.552 80.1559 579.158 77.8964 575.097 77.3943C561.169 75.672 547.128 74.7338 533.166 73.1734C514.069 71.0391 494.602 73.6811 475.282 72.1599C456.86 70.7098 33.9295 76.5538 15.3976 76.1646C7.69571 76.0032 4.81251 73.1959 6.3854 66.1334C9.77606 50.9144 12.8763 35.6446 15.9183 20.3696C17.3435 13.2138 23.4327 14.3127 28.3133 14.7601C33.301 15.2169 37.9179 17.0279 42.3796 13.0137C45.174 10.4997 46.7328 14.5678 49.2891 14.6645C63.0386 15.1843 480.859 11.1351 494.932 8.56262C507.275 6.30639 520.183 5.16952 532.941 6.55396C532.926 6.75337 532.863 6.96454 532.916 7.1474C532.946 7.25713 533.155 7.32253 533.285 7.40769C533.128 7.14359 532.972 6.87949 532.817 6.61539Z" fill="#FEC14B"/>
</svg>
