<svg width="210" height="39" viewBox="0 0 210 39" fill="none" xmlns="http://www.w3.org/2000/svg">
<rect x="0.5" y="0.5" width="209" height="38" rx="1.5" fill="white" stroke="#123F67"/>
<path d="M40.5547 12.96C42.0347 12.96 43.328 13.2533 44.4347 13.84C45.5414 14.4267 46.3947 15.2533 46.9947 16.32C47.608 17.3733 47.9147 18.5933 47.9147 19.98C47.9147 21.3533 47.608 22.5733 46.9947 23.64C46.3947 24.7067 45.5347 25.5333 44.4147 26.12C43.308 26.7067 42.0214 27 40.5547 27H35.2947V12.96H40.5547ZM40.3347 24.04C41.628 24.04 42.6347 23.6867 43.3547 22.98C44.0747 22.2733 44.4347 21.2733 44.4347 19.98C44.4347 18.6867 44.0747 17.68 43.3547 16.96C42.6347 16.24 41.628 15.88 40.3347 15.88H38.7147V24.04H40.3347ZM58.9859 27L56.0659 21.7H55.2459V27H51.8259V12.96H57.5659C58.6726 12.96 59.6126 13.1533 60.3859 13.54C61.1726 13.9267 61.7593 14.46 62.1459 15.14C62.5326 15.8067 62.7259 16.5533 62.7259 17.38C62.7259 18.3133 62.4593 19.1467 61.9259 19.88C61.4059 20.6133 60.6326 21.1333 59.6059 21.44L62.8459 27H58.9859ZM55.2459 19.28H57.3659C57.9926 19.28 58.4593 19.1267 58.7659 18.82C59.0859 18.5133 59.2459 18.08 59.2459 17.52C59.2459 16.9867 59.0859 16.5667 58.7659 16.26C58.4593 15.9533 57.9926 15.8 57.3659 15.8H55.2459V19.28ZM76.7511 24.2H82.7911V27H72.8711V24.4L78.8711 15.76H72.8711V12.96H82.7911V15.56L76.7511 24.2ZM93.6652 27.14C92.3452 27.14 91.1318 26.8333 90.0252 26.22C88.9318 25.6067 88.0585 24.7533 87.4052 23.66C86.7652 22.5533 86.4452 21.3133 86.4452 19.94C86.4452 18.5667 86.7652 17.3333 87.4052 16.24C88.0585 15.1467 88.9318 14.2933 90.0252 13.68C91.1318 13.0667 92.3452 12.76 93.6652 12.76C94.9852 12.76 96.1918 13.0667 97.2852 13.68C98.3918 14.2933 99.2585 15.1467 99.8852 16.24C100.525 17.3333 100.845 18.5667 100.845 19.94C100.845 21.3133 100.525 22.5533 99.8852 23.66C99.2452 24.7533 98.3785 25.6067 97.2852 26.22C96.1918 26.8333 94.9852 27.14 93.6652 27.14ZM93.6652 24.02C94.7852 24.02 95.6785 23.6467 96.3452 22.9C97.0252 22.1533 97.3652 21.1667 97.3652 19.94C97.3652 18.7 97.0252 17.7133 96.3452 16.98C95.6785 16.2333 94.7852 15.86 93.6652 15.86C92.5318 15.86 91.6252 16.2267 90.9452 16.96C90.2785 17.6933 89.9452 18.6867 89.9452 19.94C89.9452 21.18 90.2785 22.1733 90.9452 22.92C91.6252 23.6533 92.5318 24.02 93.6652 24.02ZM117.308 27H113.888L108.168 18.34V27H104.748V12.96H108.168L113.888 21.66V12.96H117.308V27ZM125.207 15.7V18.54H129.787V21.18H125.207V24.26H130.387V27H121.787V12.96H130.387V15.7H125.207Z" fill="#123367"/>
<mask id="mask0_2032:24403" style="mask-type:alpha" maskUnits="userSpaceOnUse" x="0" y="0" width="210" height="39">
<rect x="0.5" y="0.5" width="209" height="38" rx="1.5" fill="white" stroke="#123F67"/>
</mask>
<g mask="url(#mask0_2032:24403)">
<path d="M148.194 10.9515C147.077 11.6405 146.574 12.9621 146.827 14.1845L146.232 14.5516C145.048 15.2819 144.673 16.8667 145.403 18.0505L150.476 26.2736C153.54 31.2412 159.857 32.9709 164.98 30.4147L169.811 38.2456C172.758 43.0217 179.027 44.5104 183.807 41.5617C188.587 38.613 190.069 32.3421 187.123 27.566L186.539 26.6192C188.256 25.0002 188.666 22.319 187.382 20.2365C185.913 17.8565 182.764 17.1103 180.384 18.5785C178.004 20.0467 177.257 23.1963 178.726 25.5763C180.01 27.6588 182.59 28.4954 184.808 27.6872L185.392 28.6339C187.764 32.4799 186.591 37.4544 182.739 39.8305C178.887 42.2067 173.915 41.0236 171.542 37.1776L166.712 29.3467C171.295 25.9149 172.583 19.4937 169.519 14.526L164.446 6.30293C163.716 5.11907 162.131 4.74359 160.947 5.47391L160.352 5.84102C159.373 5.0667 157.966 4.92267 156.849 5.61167C155.426 6.49007 154.976 8.38648 155.855 9.81038C156.733 11.2343 158.629 11.6836 160.053 10.8052C161.176 10.1126 161.696 8.7917 161.433 7.56387L162.015 7.20509C162.27 7.04794 162.558 7.11615 162.715 7.3709L167.788 15.594C170.459 19.9248 169.134 25.5185 164.803 28.1901C160.472 30.8618 154.879 29.5365 152.207 25.2057L147.134 16.9826C146.977 16.7278 147.045 16.4399 147.3 16.2828L147.881 15.924C148.861 16.7094 150.275 16.8377 151.397 16.145C152.821 15.2666 153.271 13.3702 152.392 11.9463C151.514 10.5224 149.617 10.0731 148.194 10.9515ZM149.262 12.6827C149.75 12.3814 150.36 12.526 150.661 13.0143C150.962 13.5025 150.818 14.1126 150.329 14.4138C149.841 14.7151 149.231 14.5705 148.93 14.0822C148.629 13.5939 148.773 12.9839 149.262 12.6827ZM157.917 7.34285C158.406 7.04163 159.016 7.18617 159.317 7.67445C159.618 8.16273 159.474 8.77281 158.985 9.07403C158.497 9.37524 157.887 9.2307 157.586 8.74242C157.285 8.25414 157.429 7.64406 157.917 7.34285ZM181.452 20.3097C182.896 19.4186 184.759 19.8601 185.65 21.3045C186.541 22.7488 186.1 24.6122 184.656 25.5032C183.211 26.3942 181.348 25.9527 180.457 24.5084C179.566 23.064 180.007 21.2007 181.452 20.3097ZM182.253 21.608C181.536 22.0504 181.313 22.9903 181.755 23.7074C182.198 24.4245 183.137 24.6472 183.855 24.2048C184.572 23.7625 184.794 22.8225 184.352 22.1055C183.91 21.3884 182.97 21.1657 182.253 21.608Z" fill="#123F67"/>
</g>
</svg>
