<svg width="59" height="60" viewBox="0 0 59 60" fill="none" xmlns="http://www.w3.org/2000/svg">
<path d="M46.0593 9.78206C46.3322 10.043 46.5006 10.4135 46.403 10.8426C46.2551 11.433 45.675 11.8195 45.0313 11.7263C33.2659 9.36199 22.9802 13.6398 18.1509 22.9259C13.0645 32.6985 15.6726 44.6025 24.792 53.3237L25.1197 53.6371C25.6113 54.1072 25.5724 54.8019 25.1539 55.2379C24.7354 55.6739 23.9869 55.6899 23.5501 55.2722L23.2224 54.9588C13.393 45.5586 10.6029 32.6445 16.1517 21.954C21.4955 11.6955 32.6795 6.91812 45.4668 9.52718C45.6799 9.52296 45.896 9.62525 46.0599 9.78197L46.0593 9.78206Z" fill="white"/>
<path d="M25.4551 47.0647C25.728 47.3257 25.8442 47.7506 25.7466 48.1797C25.3532 49.7895 25.5445 51.2274 25.8447 52.7688C25.9723 53.727 26.1521 54.6308 26.1201 55.6458C26.1269 55.9661 25.9745 56.3427 25.6581 56.5633C25.3422 56.7836 24.9687 56.8452 24.6459 56.7452C23.4607 56.3435 22.3821 55.9396 21.304 55.5353C20.2255 55.1314 19.1473 54.7271 18.0711 54.4296C17.4796 54.2821 17.145 53.6484 17.3452 53.0036C17.4931 52.4132 18.128 52.0792 18.774 52.2789C19.9592 52.6806 21.0377 53.0845 22.1159 53.4888C22.6551 53.6908 23.1944 53.8927 23.7336 54.0947C23.6745 53.8288 23.6673 53.5089 23.5537 53.1909C23.2512 51.5423 22.9437 49.6802 23.4896 47.6931C23.6375 47.1027 24.2175 46.7162 24.8638 46.9163C25.1821 46.8039 25.3457 46.9603 25.455 47.0648L25.4551 47.0647Z" fill="white"/>
</svg>
