<svg width="375" height="66" viewBox="0 0 375 66" fill="none" xmlns="http://www.w3.org/2000/svg">
<g clip-path="url(#clip0_789_72132)">
<path d="M1967.63 53.3921C1962.7 52.5972 1955.7 54.8447 1950.62 53.9402C1945.73 53.0632 1940.3 52.7891 1935.47 51.8846C1930.28 50.8979 1926 48.5407 1921.02 47.6088C1916.09 46.6769 1916.19 37.9062 1911.66 37.0839C1906.22 36.0972 1897.71 40.9211 1893.03 40.1811C1887.14 39.2492 1881.81 40.4278 1877.68 40.1263C1872.74 39.7974 1868.26 37.4951 1863.33 37.1387C1858.35 36.7824 1854.82 30.2044 1849.79 29.848C1844.81 29.4917 1839.27 31.1088 1834.24 30.7525C1829.2 30.3962 1823.31 33.7675 1818.28 33.4386C1813.24 33.1097 1809.42 27.0524 1804.33 26.7509C1798.9 26.422 1791.55 36.015 1786.11 35.7409C1780.68 35.4668 1776.35 28.0391 1770.91 27.8198C1765.42 27.6005 1760.04 25.5723 1754.6 25.4353C1749.16 25.2982 1743.17 32.26 1737.74 32.1778C1732.3 32.123 1726.91 27.5731 1721.48 27.6005C1716.04 27.6279 1710.35 26.1753 1704.92 26.3123C1699.48 26.4494 1693.44 24.6678 1688.05 24.9419C1682.67 25.216 1677.53 28.5324 1672.15 28.9436C1666.76 29.3547 1663.79 37.3032 1658.45 37.8788C1653.82 38.3721 1647.23 33.1371 1642.65 33.6304C1637.31 34.1786 1631.83 34.2334 1626.49 34.7542C1621.15 35.3024 1618.03 42.3738 1612.75 42.8946C1607.46 43.4153 1600.62 39.1396 1595.33 39.6329C1590.05 40.1263 1585.11 41.853 1579.88 42.2916C1574.59 42.7575 1569 42.0175 1563.72 42.4286C1558.43 42.8397 1552.95 42.319 1547.66 42.6753C1542.38 43.0316 1536.13 38.5092 1530.85 38.8107C1525.56 39.1396 1521.54 46.0191 1516.25 46.2658C1510.96 46.5399 1504.97 42.0997 1499.64 42.319C1494.3 42.5382 1489.07 42.5931 1483.73 42.7301C1478.35 42.8671 1473.11 42.8671 1467.72 42.9494C1462.34 43.0316 1457.05 44.0183 1451.57 44.0183C1446.08 44.0183 1440.64 46.6769 1435.1 46.5947C1429.62 46.5125 1424.13 45.5532 1418.54 45.3887C1412.96 45.2243 1407.47 44.6487 1401.83 44.402C1396.19 44.1554 1391.21 40.6745 1385.47 40.3456C1380.74 40.0715 1376.06 40.3181 1371.33 39.9618C1366.34 39.6055 1360 44.1828 1354.97 43.7442C1349.98 43.3057 1345.2 41.8804 1340.17 41.4145C1334.73 40.8937 1330.1 37.8788 1324.66 37.3306C1319.23 36.7824 1313.64 36.7002 1308.2 36.1246C1302.77 35.5765 1296.07 38.6736 1290.63 38.1255C1285.2 37.5773 1280.52 34.8912 1275.13 34.3705C1269.74 33.8497 1264.86 31.5748 1259.42 31.1088C1254.04 30.6429 1247.14 36.1246 1241.81 35.7409C1236.02 35.3298 1230.58 34.7816 1224.89 34.4801C1219.15 34.1786 1213.92 32.397 1208.28 32.2326C1203.65 32.0956 1199.37 33.0823 1194.74 33.1645C1189.3 33.2467 1183.62 29.9577 1178.18 30.2866C1173.15 30.5607 1167.86 29.9577 1162.83 30.3962C1157.84 30.8348 1151.35 27.6828 1146.32 28.2583C1141.33 28.8339 1138.06 33.9319 1133.08 34.5897C1128.09 35.2475 1123.16 35.9054 1118.18 36.618C1113.24 37.3032 1109.57 40.7019 1104.64 41.4145C1099.3 42.1819 1091.3 37.3306 1085.96 38.0706C1080.62 38.8107 1077.45 44.3198 1072.07 44.9776C1066.73 45.6354 1061.39 46.5673 1056.06 47.1155C1050.72 47.6637 1044.53 45.4984 1039.2 45.9095C1033.86 46.2932 1028.27 43.8813 1022.94 44.0731C1017.6 44.265 1012.72 45.2517 1007.38 45.1969C1002 45.1421 995.603 51.912 990.217 51.5557C985.435 51.2542 981.659 46.5947 977.028 46.074C976.374 45.9917 975.719 45.8273 975.115 45.6354C971.139 44.4294 968.269 40.8389 963.991 40.2633C959.108 39.6055 950.248 46.9236 945.466 46.1288C940.281 45.2791 940.332 35.3846 935.197 34.4527C930.012 33.5208 921.405 38.1803 916.22 37.221C911.085 36.2617 904.39 37.9062 899.206 36.9743C894.021 36.0698 889.49 34.4527 884.255 33.6578C879.02 32.863 874.338 31.3555 869.003 30.7525C863.667 30.1495 859.791 23.9004 854.354 23.5441C849.874 23.27 845.042 22.9685 840.713 22.8314C835.679 22.667 830.242 22.6944 825.309 22.6944C820.326 22.6944 815.695 28.5872 810.812 28.7791C805.879 28.971 801.55 30.917 796.717 31.2459C791.432 31.6022 787.002 33.5756 781.767 34.069C776.532 34.5623 768.779 27.8198 763.595 28.4502C758.41 29.0806 753.426 30.4784 748.292 31.1911C743.107 31.9037 739.08 35.0009 733.946 35.7683C728.811 36.5358 724.885 39.6055 719.75 40.4004C714.616 41.1952 705.505 34.3705 700.37 35.1379C695.236 35.9328 694.581 45.6354 689.396 46.4029C684.211 47.1703 678.221 46.4851 673.036 47.1977C667.801 47.8829 660.804 44.3198 655.519 44.8954C650.233 45.4984 645.753 48.3763 640.417 48.8422C635.081 49.3082 629.595 49.7741 624.208 50.0756C618.822 50.3771 612.933 47.1977 607.446 47.3348C601.959 47.4444 596.371 52.6794 590.784 52.5698C585.196 52.4602 580.565 44.8954 574.877 44.5391C570.045 44.2376 564.91 45.7725 560.027 45.4436C555.044 45.0872 550.06 44.8132 545.027 44.4294C540.043 44.0457 535.513 41.9353 530.479 41.5241C525.445 41.113 520.713 39.9344 515.68 39.4959C510.646 39.0573 502.793 48.0474 497.759 47.6088C492.323 47.1155 486.735 46.7318 481.248 46.211C476.214 45.7451 472.54 40.8937 467.456 40.4004C462.422 39.907 458.747 35.1927 453.663 34.6994C448.629 34.206 441.078 41.3049 435.994 40.8115C430.96 40.3181 425.373 41.3871 420.289 40.8937C415.255 40.4004 412.084 34.1238 407 33.6304C401.966 33.1371 395.371 37.4402 390.338 36.9743C384.851 36.4535 379.414 35.9876 373.927 35.4942C368.441 35.0009 362.752 35.5216 357.266 35.0557C351.829 34.5897 347.399 30.6703 341.912 30.2318C336.476 29.7932 331.543 27.5457 326.056 27.1346C320.619 26.7235 315.133 26.6138 309.696 26.2301C304.26 25.8464 299.427 22.7766 293.991 22.4477C288.554 22.1188 282.463 25.5175 277.077 25.2434C271.691 24.9693 266.053 26.9153 260.667 26.6961C255.281 26.4768 250.75 19.7617 245.364 19.6246C240.229 19.4602 235.095 25.1612 230.212 25.2434C224.776 25.353 220.396 27.8472 215.211 28.1761C209.926 28.5324 205.446 29.0532 200.311 29.6288C194.724 30.2318 188.834 28.9984 183.347 29.7658C177.81 30.5333 169.001 24.75 163.464 25.5997C157.927 26.4494 152.138 26.8605 146.5 27.7376C141.265 28.5324 138.194 33.7127 132.758 34.4253C127.371 35.1379 120.878 33.1097 115.24 33.6853C110.559 34.1786 106.229 34.206 101.699 34.4801C96.7155 34.7816 92.5878 41.9078 87.7553 41.9901C82.8222 42.0723 79.9529 35.4942 75.1708 35.3846C69.8853 35.275 61.4285 42.7849 56.2437 42.4834C51.0085 42.2093 47.3339 34.2882 42.0987 33.8771C36.8132 33.466 27.9034 39.9892 22.5675 39.5233C17.2317 39.0573 15.1678 33 9.68097 32.5341C5.80493 32.2052 -2.09815 35.1927 -7.88703 36.3987C-5.47081 37.4128 -3.50762 38.3447 -3.96066 38.7833C-5.16878 39.9344 -11.5114 39.4959 -13.3236 40.1811C-12.6692 40.8389 -12.0651 41.5241 -11.31 42.0449C-10.0012 43.0042 -4.011 43.1686 -3.25593 44.4294C-2.5512 45.608 -6.57824 47.7459 -6.52791 49.1163C-6.47757 50.103 -15.7398 50.2127 -16.0418 51.1171C-16.4948 52.4876 -2.85323 56.1877 -3.96066 57.2841C-5.11844 58.4627 -11.5617 58.1338 -13.3236 58.8738C-15.4378 59.7783 -18.1057 63.0125 -20.7736 63.0673C-22.6864 63.0947 -20.6729 55.2284 -22.3844 54.8173C-24.5993 54.2417 -24.2973 55.4751 -25.9584 54.2691C-27.2672 53.3098 -31.7473 54.2417 -32.5024 53.0083C-33.0057 52.1861 -33.9118 51.5557 -34.7676 50.7882V4.36709e-05H1978.86V52.9535C1975.18 53.1728 1971.1 53.9402 1967.63 53.3921Z" fill="white"/>
</g>
<defs>
<clipPath id="clip0_789_72132">
<rect width="376" height="66" fill="white" transform="matrix(1 0 0 -1 0 66)"/>
</clipPath>
</defs>
</svg>
