<svg width="13" height="12" viewBox="0 0 13 12" fill="none" xmlns="http://www.w3.org/2000/svg">
<g clip-path="url(#clip0_214_1700)">
<path d="M2.52863 7.87405V2.15052H1.57471V1.19659H3.00559C3.13209 1.19659 3.2534 1.24685 3.34285 1.33629C3.4323 1.42574 3.48255 1.54706 3.48255 1.67356V7.39709H9.41499L10.3689 3.5814H4.43647V2.62748H10.9804C11.0529 2.62748 11.1244 2.64401 11.1896 2.67581C11.2547 2.70761 11.3118 2.75385 11.3564 2.81101C11.401 2.86816 11.432 2.93474 11.447 3.00566C11.462 3.07659 11.4606 3.15001 11.443 3.22034L10.2506 7.98995C10.2248 8.09309 10.1652 8.18464 10.0814 8.25006C9.99758 8.31548 9.8943 8.35101 9.78798 8.35101H3.00559C2.87909 8.35101 2.75778 8.30076 2.66833 8.21131C2.57888 8.12186 2.52863 8.00055 2.52863 7.87405ZM3.48255 11.2128C3.22956 11.2128 2.98692 11.1123 2.80803 10.9334C2.62913 10.7545 2.52863 10.5119 2.52863 10.2589C2.52863 10.0059 2.62913 9.76322 2.80803 9.58433C2.98692 9.40543 3.22956 9.30493 3.48255 9.30493C3.73555 9.30493 3.97818 9.40543 4.15708 9.58433C4.33597 9.76322 4.43647 10.0059 4.43647 10.2589C4.43647 10.5119 4.33597 10.7545 4.15708 10.9334C3.97818 11.1123 3.73555 11.2128 3.48255 11.2128ZM9.20608 11.2128C8.95309 11.2128 8.71045 11.1123 8.53156 10.9334C8.35266 10.7545 8.25216 10.5119 8.25216 10.2589C8.25216 10.0059 8.35266 9.76322 8.53156 9.58433C8.71045 9.40543 8.95309 9.30493 9.20608 9.30493C9.45908 9.30493 9.70171 9.40543 9.88061 9.58433C10.0595 9.76322 10.16 10.0059 10.16 10.2589C10.16 10.5119 10.0595 10.7545 9.88061 10.9334C9.70171 11.1123 9.45908 11.2128 9.20608 11.2128Z" fill="white"/>
</g>
<defs>
<clipPath id="clip0_214_1700">
<rect width="11.4471" height="11.4471" fill="white" transform="translate(0.620789 0.242676)"/>
</clipPath>
</defs>
</svg>
