<svg width="34" height="44" viewBox="0 0 34 44" fill="none" xmlns="http://www.w3.org/2000/svg">
<path d="M28.6905 13.0909H28.5863C28.5863 6.35451 23.1 0.868164 16.3636 0.868164C9.62716 0.868164 4.14081 6.35451 4.14081 13.0909H4.03664C2.33518 13.0909 0.980957 14.4799 0.980957 16.1466V30.7653C0.980957 32.4667 2.36991 33.821 4.03664 33.821H28.6905C30.3919 33.821 31.7462 32.432 31.7462 30.7653V16.1466C31.7809 14.4451 30.3919 13.0909 28.6905 13.0909ZM22.6833 21.2857L15.808 28.1957C15.5996 28.4041 15.2524 28.4041 15.0441 28.1957L10.0438 23.1955C9.8355 22.9872 9.8355 22.6399 10.0438 22.4316L11.8148 20.6607C12.0231 20.4523 12.3703 20.4523 12.5787 20.6607L15.3913 23.4733L20.1484 18.7509C20.3568 18.5425 20.704 18.5425 20.9124 18.7509L22.6833 20.5218C22.8916 20.7301 22.8916 21.0774 22.6833 21.2857ZM24.4195 13.0909H8.30766C8.30766 8.64627 11.9189 5.03501 16.3636 5.03501C20.8082 5.03501 24.4195 8.64627 24.4195 13.0909Z" fill="#C00101"/>
</svg>
