<svg width="60" height="31" viewBox="0 0 60 31" fill="none" xmlns="http://www.w3.org/2000/svg">
<path d="M13.5269 17.1235H0.375747C0.187873 17.1235 0 17.3114 0 17.4993V19.7538C0 19.9416 0.187873 20.1295 0.375747 20.1295H13.5269C13.7148 20.1295 13.9026 19.9416 13.9026 19.7538V17.4993C13.9026 17.3114 13.7148 17.1235 13.5269 17.1235Z" fill="#C00101"/>
<path d="M13.5266 11.1121H4.19557C4.0077 11.1121 3.81982 11.2999 3.81982 11.4878V13.7423C3.81982 13.9302 4.0077 14.118 4.19557 14.118H13.5266C13.7145 14.118 13.9024 13.9302 13.9024 13.7423V11.4878C13.9024 11.2373 13.7145 11.1121 13.5266 11.1121Z" fill="#C00101"/>
<path d="M13.527 5.03711H7.95338C7.76551 5.03711 7.57764 5.22498 7.57764 5.41286V7.66734C7.57764 7.85521 7.76551 8.04309 7.95338 8.04309H13.527C13.7148 8.04309 13.9027 7.85521 13.9027 7.66734V5.41286C13.9027 5.22498 13.7148 5.03711 13.527 5.03711Z" fill="#C00101"/>
<path d="M58.9294 14.8694L56.174 6.5404C55.9235 5.7889 55.172 5.22528 54.3579 5.22528H45.8409V1.21732C45.8409 0.716323 45.4652 0.340576 45.0268 0.340576H18.0983C17.6599 0.340576 17.2842 0.716323 17.2842 1.21732V24.0126C17.2842 24.451 17.6599 24.8267 18.0983 24.8267H22.2315C22.2315 27.8327 24.6739 30.2124 27.6172 30.2124C30.5606 30.2124 33.0029 27.7701 33.0029 24.8267H43.7117C43.7117 27.8327 46.1541 30.2124 49.0974 30.2124C52.0408 30.2124 54.4831 27.7701 54.4831 24.8267H58.5537C59.0547 24.8267 59.4931 24.3884 59.4931 23.8874V18.5017C59.4931 17.2492 59.3052 16.0593 58.9294 14.8694ZM27.6172 27.3943C26.2395 27.3943 25.0496 26.2671 25.0496 24.8267C25.0496 23.449 26.1769 22.2591 27.6172 22.2591C28.995 22.2591 30.1848 23.3864 30.1848 24.8267C30.1848 26.2671 29.0576 27.3943 27.6172 27.3943ZM49.16 27.3943C47.7823 27.3943 46.5924 26.2671 46.5924 24.8267C46.5924 23.449 47.7197 22.2591 49.16 22.2591C50.6004 22.2591 51.665 23.449 51.665 24.8267C51.665 26.2671 50.5378 27.3943 49.16 27.3943ZM55.0467 13.8048H46.6551C46.2167 13.8048 45.9036 13.4917 45.9036 13.0533V8.8575C45.9036 8.41913 46.2167 8.10601 46.6551 8.10601H53.1054C53.4185 8.10601 53.7316 8.29388 53.8569 8.607L55.4225 13.3038C55.4851 13.5543 55.2972 13.8048 55.0467 13.8048Z" fill="#C00101"/>
</svg>
