<svg width="44" height="45" viewBox="0 0 44 45" fill="none" xmlns="http://www.w3.org/2000/svg">
<path d="M7.35805 29.6169V7.98726H3.75311V4.38232H9.16052C9.63856 4.38232 10.097 4.57223 10.4351 4.91026C10.7731 5.24828 10.963 5.70675 10.963 6.18479V27.8144H33.3821L36.987 13.3947H14.5679V9.78973H39.2978C39.5718 9.78974 39.8422 9.85221 40.0884 9.97239C40.3346 10.0926 40.5502 10.2673 40.7188 10.4833C40.8873 10.6993 41.0044 10.9509 41.0611 11.2189C41.1179 11.487 41.1128 11.7644 41.0462 12.0302L36.54 30.0549C36.4424 30.4447 36.2173 30.7906 35.9005 31.0379C35.5837 31.2851 35.1934 31.4193 34.7916 31.4194H9.16052C8.68248 31.4194 8.22401 31.2295 7.88598 30.8914C7.54795 30.5534 7.35805 30.0949 7.35805 29.6169ZM10.963 42.2342C10.0069 42.2342 9.08997 41.8544 8.41391 41.1783C7.73786 40.5023 7.35805 39.5853 7.35805 38.6292C7.35805 37.6731 7.73786 36.7562 8.41391 36.0802C9.08997 35.4041 10.0069 35.0243 10.963 35.0243C11.9191 35.0243 12.836 35.4041 13.5121 36.0802C14.1881 36.7562 14.5679 37.6731 14.5679 38.6292C14.5679 39.5853 14.1881 40.5023 13.5121 41.1783C12.836 41.8544 11.9191 42.2342 10.963 42.2342ZM32.5926 42.2342C31.6365 42.2342 30.7196 41.8544 30.0435 41.1783C29.3675 40.5023 28.9877 39.5853 28.9877 38.6292C28.9877 37.6731 29.3675 36.7562 30.0435 36.0802C30.7196 35.4041 31.6365 35.0243 32.5926 35.0243C33.5487 35.0243 34.4656 35.4041 35.1417 36.0802C35.8177 36.7562 36.1976 37.6731 36.1976 38.6292C36.1976 39.5853 35.8177 40.5023 35.1417 41.1783C34.4656 41.8544 33.5487 42.2342 32.5926 42.2342Z" fill="white"/>
</svg>
