<svg width="38" height="38" viewBox="0 0 38 38" fill="none" xmlns="http://www.w3.org/2000/svg">
<path d="M36.7412 20.0187C37.3166 19.5584 37.3166 18.6762 36.7412 18.2159L33.9027 15.7993C33.5191 15.4924 33.404 14.9554 33.5575 14.4951L34.8233 11.0044C35.0535 10.314 34.6315 9.58517 33.9027 9.43173L30.2203 8.74128C29.7216 8.66456 29.338 8.28097 29.2613 7.78231L28.6092 4.13824C28.4941 3.40942 27.727 2.98748 27.0365 3.21763L23.5459 4.48347C23.0856 4.6369 22.5485 4.52182 22.2417 4.13824L19.8251 1.2997C19.3648 0.724319 18.4825 0.724319 18.0222 1.2997L15.644 4.13824C15.3371 4.52182 14.8001 4.6369 14.3398 4.48347L10.8492 3.21763C10.1203 2.98748 9.39153 3.40942 9.27646 4.13824L8.586 7.82067C8.50928 8.31933 8.1257 8.70292 7.62704 8.77963L3.98296 9.43173C3.25415 9.54681 2.83221 10.314 3.06236 11.0044L4.32819 14.4951C4.48163 14.9554 4.36655 15.4924 3.98296 15.7993L1.14443 18.2159C0.569046 18.6762 0.569046 19.5584 1.14443 20.0187L3.98296 22.4353C4.36655 22.7422 4.48163 23.2792 4.32819 23.7395L3.06236 27.2301C2.83221 27.9206 3.25415 28.6494 3.98296 28.7645L7.66539 29.4166C8.16406 29.4933 8.54764 29.8769 8.62436 30.3756L9.27646 34.058C9.39153 34.7868 10.1587 35.2087 10.8492 34.9786L14.3398 33.7128C14.8001 33.5593 15.3371 33.6744 15.644 34.058L18.0606 36.8965C18.5209 37.4719 19.4031 37.4719 19.8634 36.8965L22.28 34.058C22.5869 33.6744 23.1239 33.5593 23.5842 33.7128L27.0749 34.9786C27.7653 35.2087 28.4941 34.7868 28.6476 34.058L29.2997 30.3756C29.3764 29.8769 29.76 29.4933 30.2586 29.4166L33.9411 28.7645C34.6699 28.6494 35.0918 27.8822 34.8617 27.1918L33.5575 23.7011C33.404 23.2408 33.5191 22.7038 33.9027 22.397L36.7412 20.0187ZM18.9428 28.5343C13.7261 28.5343 9.50661 24.3149 9.50661 19.0981C9.50661 13.8813 13.7261 9.66188 18.9428 9.66188C24.1596 9.66188 28.3791 13.8813 28.3791 19.0981C28.3791 24.3149 24.1596 28.5343 18.9428 28.5343Z" fill="#C00101"/>
<path d="M23.124 14.5333C22.8555 14.2648 22.3952 14.3032 22.1267 14.5717L17.9072 19.1364L15.7591 16.8348C15.4906 16.5663 15.0687 16.528 14.7618 16.7965L13.2274 18.2158C12.9589 18.4843 12.9206 18.9062 13.1891 19.2131L17.3702 23.701C17.6387 24.0079 18.099 24.0079 18.4059 23.701L24.6583 16.9499C24.9268 16.6814 24.8885 16.2211 24.62 15.9526L23.124 14.5333Z" fill="#C00101"/>
</svg>
