<svg width="40" height="50" viewBox="0 0 40 50" fill="none" xmlns="http://www.w3.org/2000/svg">
<g clip-path="url(#clip0_144_9657)">
<path d="M34.2 15.08H34.08C34.08 7.32 27.76 1 20 1C12.24 1 5.91997 7.32 5.91997 15.08H5.79997C3.83997 15.08 2.27997 16.68 2.27997 18.6V35.44C2.27997 37.4 3.87997 38.96 5.79997 38.96H34.2C36.16 38.96 37.72 37.36 37.72 35.44V18.6C37.76 16.64 36.16 15.08 34.2 15.08ZM27.28 24.52L19.36 32.48C19.12 32.72 18.72 32.72 18.48 32.48L12.72 26.72C12.48 26.48 12.48 26.08 12.72 25.84L14.76 23.8C15 23.56 15.4 23.56 15.64 23.8L18.88 27.04L24.36 21.6C24.6 21.36 25 21.36 25.24 21.6L27.28 23.64C27.52 23.88 27.52 24.28 27.28 24.52ZM29.28 15.08H10.72C10.72 9.96 14.88 5.8 20 5.8C25.12 5.8 29.28 9.96 29.28 15.08Z" fill="black"/>
</g>
<defs>
<clipPath id="clip0_144_9657">
<rect width="40" height="50" fill="white"/>
</clipPath>
</defs>
</svg>
