<svg width="69" height="35" viewBox="0 0 69 35" fill="none" xmlns="http://www.w3.org/2000/svg">
<path d="M15.5823 19.333H0.432842C0.216421 19.333 0 19.5494 0 19.7658V22.3629C0 22.5793 0.216421 22.7957 0.432842 22.7957H15.5823C15.7987 22.7957 16.0151 22.5793 16.0151 22.3629V19.7658C16.0151 19.5494 15.7987 19.333 15.5823 19.333Z" fill="black"/>
<path d="M15.5823 12.4082H4.83338C4.61696 12.4082 4.40054 12.6246 4.40054 12.841V15.4381C4.40054 15.6545 4.61696 15.8709 4.83338 15.8709H15.5823C15.7987 15.8709 16.0151 15.6545 16.0151 15.4381V12.841C16.0151 12.5525 15.7987 12.4082 15.5823 12.4082Z" fill="black"/>
<path d="M15.5823 5.41016H9.16181C8.94539 5.41016 8.72897 5.62658 8.72897 5.843V8.44005C8.72897 8.65647 8.94539 8.87289 9.16181 8.87289H15.5823C15.7987 8.87289 16.0151 8.65647 16.0151 8.44005V5.843C16.0151 5.62658 15.7987 5.41016 15.5823 5.41016Z" fill="black"/>
<path d="M67.884 16.7365L64.7098 7.14189C64.4213 6.2762 63.5556 5.62694 62.6178 5.62694H52.8067V1.00996C52.8067 0.432841 52.3738 0 51.8689 0H20.8485C20.3436 0 19.9107 0.432841 19.9107 1.00996V27.269C19.9107 27.774 20.3436 28.2069 20.8485 28.2069H25.6098C25.6098 31.6696 28.4233 34.4109 31.8139 34.4109C35.2045 34.4109 38.0179 31.5974 38.0179 28.2069H50.3539C50.3539 31.6696 53.1674 34.4109 56.558 34.4109C59.9486 34.4109 62.762 31.5974 62.762 28.2069H67.4512C68.0283 28.2069 68.5333 27.7019 68.5333 27.1247V20.9207C68.5333 19.4779 68.3168 18.1072 67.884 16.7365ZM31.8139 31.1646C30.2268 31.1646 28.8561 29.8661 28.8561 28.2069C28.8561 26.6198 30.1546 25.2491 31.8139 25.2491C33.401 25.2491 34.7716 26.5476 34.7716 28.2069C34.7716 29.8661 33.4731 31.1646 31.8139 31.1646ZM56.6301 31.1646C55.043 31.1646 53.6724 29.8661 53.6724 28.2069C53.6724 26.6198 54.9709 25.2491 56.6301 25.2491C58.2893 25.2491 59.5157 26.6198 59.5157 28.2069C59.5157 29.8661 58.2172 31.1646 56.6301 31.1646ZM63.4113 15.5102H53.7445C53.2395 15.5102 52.8788 15.1495 52.8788 14.6445V9.81108C52.8788 9.3061 53.2395 8.94539 53.7445 8.94539H61.175C61.5357 8.94539 61.8964 9.16181 62.0406 9.52252L63.8442 14.933C63.9163 15.2216 63.6999 15.5102 63.4113 15.5102Z" fill="black"/>
</svg>
