<svg width="42" height="42" viewBox="0 0 42 42" fill="none" xmlns="http://www.w3.org/2000/svg">
<path d="M41.5029 22.0605C42.1657 21.5302 42.1657 20.5139 41.5029 19.9837L38.233 17.1999C37.7912 16.8464 37.6586 16.2278 37.8354 15.6975L39.2935 11.6765C39.5587 10.8811 39.0726 10.0416 38.233 9.86481L33.9911 9.06944C33.4166 8.98106 32.9748 8.53919 32.8864 7.96476L32.1352 3.76696C32.0026 2.92741 31.1189 2.44135 30.3235 2.70647L26.3025 4.16465C25.7722 4.3414 25.1536 4.20884 24.8001 3.76696L22.0163 0.497107C21.4861 -0.165702 20.4698 -0.165702 19.9395 0.497107L17.1999 3.76696C16.8464 4.20884 16.2278 4.3414 15.6975 4.16465L11.6765 2.70647C10.8369 2.44135 9.99737 2.92741 9.86481 3.76696L9.06944 8.00894C8.98106 8.58338 8.53919 9.02525 7.96476 9.11362L3.76696 9.86481C2.92741 9.99737 2.44135 10.8811 2.70647 11.6765L4.16465 15.6975C4.3414 16.2278 4.20884 16.8464 3.76696 17.1999L0.497107 19.9837C-0.165702 20.5139 -0.165702 21.5302 0.497107 22.0605L3.76696 24.8443C4.20884 25.1978 4.3414 25.8164 4.16465 26.3467L2.70647 30.3677C2.44135 31.1631 2.92741 32.0026 3.76696 32.1352L8.00894 32.8864C8.58338 32.9748 9.02525 33.4166 9.11362 33.9911L9.86481 38.233C9.99737 39.0726 10.8811 39.5587 11.6765 39.2935L15.6975 37.8354C16.2278 37.6586 16.8464 37.7912 17.1999 38.233L19.9837 41.5029C20.5139 42.1657 21.5302 42.1657 22.0605 41.5029L24.8443 38.233C25.1978 37.7912 25.8164 37.6586 26.3467 37.8354L30.3677 39.2935C31.1631 39.5587 32.0026 39.0726 32.1794 38.233L32.9306 33.9911C33.0189 33.4166 33.4608 32.9748 34.0352 32.8864L38.2772 32.1352C39.1168 32.0026 39.6028 31.1189 39.3377 30.3235L37.8354 26.3025C37.6586 25.7722 37.7912 25.1536 38.233 24.8001L41.5029 22.0605ZM21 31.8701C14.9905 31.8701 10.1299 27.0095 10.1299 21C10.1299 14.9905 14.9905 10.1299 21 10.1299C27.0095 10.1299 31.8701 14.9905 31.8701 21C31.8701 27.0095 27.0095 31.8701 21 31.8701Z" fill="black"/>
<path d="M25.8164 15.7413C25.5071 15.432 24.9768 15.4762 24.6675 15.7855L19.8069 21.0438L17.3324 18.3926C17.0231 18.0833 16.5371 18.0391 16.1836 18.3484L14.4161 19.9833C14.1068 20.2926 14.0626 20.7787 14.3719 21.1322L19.1883 26.3021C19.4976 26.6556 20.0279 26.6556 20.3814 26.3021L27.5839 18.5251C27.8932 18.2158 27.849 17.6856 27.5397 17.3763L25.8164 15.7413Z" fill="black"/>
</svg>
