<svg xmlns="http://www.w3.org/2000/svg" width="196.346" height="57.602" viewBox="0 0 196.346 57.602">
    <g id="Group_355" data-name="Group 355" transform="translate(-192.873 -1708.905)">
        <g id="Group_354" data-name="Group 354">
        <g id="Group_353" data-name="Group 353">
            <g id="Group_350" data-name="Group 350">
            <path id="Path_454" data-name="Path 454" d="M219.74,1735.734a15.385,15.385,0,0,1,5.421,9.089h-8.569a7.874,7.874,0,0,0-2.911-3.645,8.147,8.147,0,0,0-4.664-1.326,7.1,7.1,0,0,0-5.728,2.6,12.171,12.171,0,0,0,0,13.9,7.129,7.129,0,0,0,5.728,2.58,8.139,8.139,0,0,0,4.664-1.326,7.9,7.9,0,0,0,2.911-3.6h8.569a15.466,15.466,0,0,1-5.421,9.066,16.293,16.293,0,0,1-10.581,3.385,16.687,16.687,0,0,1-8.569-2.154,14.618,14.618,0,0,1-5.705-6.036,20.483,20.483,0,0,1,0-17.706,14.626,14.626,0,0,1,5.705-6.037,16.7,16.7,0,0,1,8.569-2.154A16.372,16.372,0,0,1,219.74,1735.734Z" fill="#14401a"/>
            <path id="Path_455" data-name="Path 455" d="M255.981,1739.758v26.417h-8.143v-4.782a8.778,8.778,0,0,1-3.385,3.693,9.835,9.835,0,0,1-5.232,1.373,9.137,9.137,0,0,1-7.219-3.03q-2.676-3.028-2.676-8.332v-15.339h8.049V1754.1a5.892,5.892,0,0,0,1.4,4.189,4.907,4.907,0,0,0,3.764,1.492,4.988,4.988,0,0,0,3.883-1.562,6.393,6.393,0,0,0,1.42-4.451v-14.013Z" fill="#14401a"/>
            <path id="Path_456" data-name="Path 456" d="M273.568,1740.894a9.97,9.97,0,0,1,5.184-1.42v8.663h-2.319a8,8,0,0,0-5,1.373q-1.776,1.374-1.775,4.64v12.025h-8.1v-26.417h8.1v4.971A11.474,11.474,0,0,1,273.568,1740.894Z" fill="#14401a"/>
            <path id="Path_457" data-name="Path 457" d="M297.406,1740.8a8.272,8.272,0,0,1,3.219,3.74v-4.781h8.048v26.417h-8.048v-4.782a8.258,8.258,0,0,1-3.219,3.741,9.573,9.573,0,0,1-5.208,1.373,10.7,10.7,0,0,1-5.847-1.634,11.161,11.161,0,0,1-4.072-4.711,18.166,18.166,0,0,1,0-14.415,11.2,11.2,0,0,1,4.072-4.687,10.7,10.7,0,0,1,5.847-1.634A9.573,9.573,0,0,1,297.406,1740.8Zm-6.794,7.433a7.86,7.86,0,0,0,0,9.469,5.944,5.944,0,0,0,8.38-.048,7.576,7.576,0,0,0,0-9.4,5.513,5.513,0,0,0-4.191-1.728A5.453,5.453,0,0,0,290.612,1748.232Z" fill="#14401a"/>
            </g>
            <g id="Group_352" data-name="Group 352">
            <g id="Group_351" data-name="Group 351">
                <path id="Path_458" data-name="Path 458" d="M321.661,1762.814H333.5v3.361H317.353V1732.8h4.308Z" fill="#14401a"/>
                <path id="Path_459" data-name="Path 459" d="M342.208,1740.184v25.991H337.9v-25.991Z" fill="#14401a"/>
                <path id="Path_460" data-name="Path 460" d="M355.819,1735.213q-1.35,1.232-1.35,4.261v.71h6.155v3.787h-6.155v22.2h-4.308v-22.2h-3.74v-3.787h3.74v-1.042q0-9.325,10.463-8.9v3.787Q357.168,1733.983,355.819,1735.213Z" fill="#14401a"/>
                <path id="Path_461" data-name="Path 461" d="M389.03,1754.1H368.246q.143,4.45,2.533,6.675a8.261,8.261,0,0,0,5.847,2.225,8.451,8.451,0,0,0,5.232-1.586,6.562,6.562,0,0,0,2.58-4.237h4.592a10.853,10.853,0,0,1-6.344,8.143,14.034,14.034,0,0,1-5.871,1.184,13.385,13.385,0,0,1-6.628-1.61,11.365,11.365,0,0,1-4.521-4.616,16.206,16.206,0,0,1,0-14.179,11.335,11.335,0,0,1,4.521-4.64,13.385,13.385,0,0,1,6.628-1.61,13.088,13.088,0,0,1,6.605,1.61,11.086,11.086,0,0,1,4.308,4.308,12.128,12.128,0,0,1,1.491,5.965A12.949,12.949,0,0,1,389.03,1754.1Zm-5.113-6.913a6.933,6.933,0,0,0-2.983-2.887,9.084,9.084,0,0,0-4.119-.947,8.523,8.523,0,0,0-5.965,2.2,8.872,8.872,0,0,0-2.6,6.463h16.617A8.845,8.845,0,0,0,383.917,1747.19Z" fill="#14401a"/>
            </g>
            </g>
        </g>
        <path id="Path_462" data-name="Path 462" d="M339.636,1735.63c-.285-.661.259-1.531.631-2.023,1.436-1.9,3.71-2.554,5.67-3.716a21.052,21.052,0,0,0,8.92-10.663c1.182-3.179,1.29-6.946,1.521-10.323-.092,1.334-2.579,2.414-3.551,3.06-1.945,1.292-4.017,2.376-5.988,3.625a18.941,18.941,0,0,0-5.826,5.263A16.564,16.564,0,0,0,339.636,1735.63Z" fill="#14401a"/>
        </g>
    </g>
</svg>