<svg xmlns="http://www.w3.org/2000/svg" width="33.44" height="33.44" viewBox="0 0 33.44 33.44">
    <g id="Group_684" data-name="Group 684" transform="translate(-205.276 -2146.456)">
        <circle id="Ellipse_50" data-name="Ellipse 50" cx="16.72" cy="16.72" r="16.72" transform="translate(205.276 2146.456)" fill="#ff6401"/>
        <path id="Path_453" data-name="Path 453" d="M233.44,2165.494h-1.954a.559.559,0,1,0,0,1.117h1.954v1.675H211.11a.56.56,0,0,1-.559-.559v-1.116h14.794a.56.56,0,0,0,.558-.558v-6.7h1.117v4.466a.559.559,0,0,0,.558.558h5.862Zm-4.187,5.583a1.382,1.382,0,0,1-1.4-1.4.945.945,0,0,1,.028-.279h2.736a.945.945,0,0,1,.028.279,1.383,1.383,0,0,1-1.4,1.4Zm-14.236,0a1.382,1.382,0,0,1-1.4-1.4.945.945,0,0,1,.028-.279h2.736a.945.945,0,0,1,.028.279,1.384,1.384,0,0,1-1.4,1.4Zm-1.4-16.189h2.512v4.466a.526.526,0,0,0,.307.5.625.625,0,0,0,.587-.055l2.177-1.675,2.178,1.675a.532.532,0,0,0,.334.111.8.8,0,0,0,.251-.056.529.529,0,0,0,.308-.5v-4.466h2.512v10.606H213.622Zm3.628,0h3.908v3.321l-1.619-1.256a.546.546,0,0,0-.7,0l-1.591,1.256Zm10.886,4.466H229l3.684,3.907h-4.55Zm6.42,4.355c0-.029,0-.029-.028-.056,0-.028,0-.028-.029-.056a.1.1,0,0,1-.028-.055c0-.029-.028-.029-.028-.056a.028.028,0,0,0-.029-.028.028.028,0,0,0-.028-.029l-4.745-5.024a.5.5,0,0,0-.388-.168H225.9v-3.907a.56.56,0,0,0-.558-.559H213.064a.56.56,0,0,0-.559.559V2165.5h-2.512a.559.559,0,0,0-.558.558v1.674a1.679,1.679,0,0,0,1.675,1.675h1.424c0,.084-.029.195-.029.279a2.512,2.512,0,0,0,5.025,0,.914.914,0,0,0-.029-.279h9.24c0,.084-.029.195-.029.279a2.512,2.512,0,0,0,5.025,0,.913.913,0,0,0-.029-.279H234a.56.56,0,0,0,.558-.558v-5.135Z" fill="#fff"/>
    </g>
</svg>