<svg xmlns="http://www.w3.org/2000/svg" width="33.44" height="33.44" viewBox="0 0 33.44 33.44">
    <g id="Group_685" data-name="Group 685" transform="translate(-205.276 -2192.161)">
        <circle id="Ellipse_49" data-name="Ellipse 49" cx="16.72" cy="16.72" r="16.72" transform="translate(205.276 2192.161)" fill="#ff6401"/>
        <g id="Group_348" data-name="Group 348">
        <path id="Path_451" data-name="Path 451" d="M216.765,2219.478a12.58,12.58,0,1,1,10.411,0,.846.846,0,0,1-.7-1.539,10.8,10.8,0,1,0-8.927.055l.252-1.343a.168.168,0,0,1,.308-.056l2.071,3.583-4.143.5a.168.168,0,0,1-.14-.28Z" fill="#fff" fill-rule="evenodd"/>
        <path id="Path_452" data-name="Path 452" d="M225.888,2204c0,.391-.42,1.175-.839,1.175-.056,0-.5-.168-1.288-.475a5.908,5.908,0,0,0-1.931-.476q-1.6,0-1.6,1.26c0,.559.476,1.063,1.428,1.483,1.651.728,2.519,1.12,2.63,1.175a2.862,2.862,0,0,1,1.428,2.519,3.118,3.118,0,0,1-.7,2.1,2.792,2.792,0,0,1-1.959.951c0,.7.224,1.735-.839,1.735a1.206,1.206,0,0,1-.84-.224c-.252-.28-.14-1.091-.14-1.455-.7-.056-3.079-.56-3.079-1.428,0-.391.336-1.175.784-1.175a9.721,9.721,0,0,1,1.288.448,5.593,5.593,0,0,0,1.931.448c1.035,0,1.539-.419,1.539-1.259,0-.615-.476-1.119-1.4-1.539-.868-.364-1.735-.756-2.631-1.12a2.7,2.7,0,0,1-1.4-2.434,3.059,3.059,0,0,1,2.939-3.163c0-.252-.029-.531-.029-.784,0-.644.309-.951.9-.951.7,0,.979.251.979.951,0,.252-.028.5-.028.784.672.056,2.854.588,2.854,1.455Z" fill="#fff" fill-rule="evenodd"/>
        </g>
    </g>
</svg>